<svg xmlns="http://www.w3.org/2000/svg" xmlns:xlink="http://www.w3.org/1999/xlink" width="800" zoomAndPan="magnify" viewBox="0 0 600 149.999998" height="200" preserveAspectRatio="xMidYMid meet" version="1.0"><defs><g/><clipPath id="869b6d13c7"><path d="M 77 12 L 191 12 L 191 138 L 77 138 Z M 77 12 " clip-rule="nonzero"/></clipPath><clipPath id="4703c978db"><path d="M 183.300781 87.398438 C 185.59375 88.707031 187.546875 90.691406 188.828125 93.261719 C 191.851562 99.335938 189.972656 106.820312 184.425781 110.726562 C 177.5625 115.5625 168.164062 113.277344 164.226562 106.023438 C 160.699219 99.527344 162.96875 91.292969 169.320312 87.511719 C 169.433594 87.445312 169.542969 87.382812 169.65625 87.320312 C 172.285156 85.851562 173.882812 83.046875 173.882812 80.035156 L 173.882812 69.933594 C 173.882812 66.863281 172.183594 64.089844 169.519531 62.570312 C 169.472656 62.539062 169.421875 62.511719 169.371094 62.484375 C 166.753906 60.941406 163.515625 60.90625 160.886719 62.425781 L 152.132812 67.480469 C 149.515625 68.992188 147.90625 71.800781 147.941406 74.824219 C 147.992188 79.664062 145.503906 84.390625 141.011719 86.984375 C 136.523438 89.578125 131.183594 89.371094 127.019531 86.90625 C 124.414062 85.363281 121.179688 85.351562 118.558594 86.863281 L 109.808594 91.917969 C 107.175781 93.433594 105.589844 96.257812 105.613281 99.292969 C 105.613281 99.351562 105.613281 99.410156 105.613281 99.464844 C 105.601562 102.53125 107.152344 105.390625 109.808594 106.925781 L 118.558594 111.976562 C 121.199219 113.503906 124.445312 113.445312 127.074219 111.902344 C 127.101562 111.886719 127.128906 111.871094 127.15625 111.855469 C 133.78125 108.03125 142.257812 110.300781 146.085938 116.929688 C 149.914062 123.558594 147.640625 132.03125 141.011719 135.859375 C 134.386719 139.6875 125.910156 137.414062 122.082031 130.789062 C 120.785156 128.542969 120.191406 126.089844 120.226562 123.671875 C 120.273438 120.65625 118.644531 117.863281 116.03125 116.351562 L 107.285156 111.300781 C 104.640625 109.777344 101.398438 109.835938 98.765625 111.375 C 98.738281 111.390625 98.714844 111.40625 98.6875 111.421875 C 91.773438 115.414062 82.851562 112.773438 79.289062 105.472656 C 76.300781 99.347656 78.285156 91.855469 83.902344 88 C 84.265625 87.753906 84.628906 87.527344 85.003906 87.320312 C 87.632812 85.851562 89.230469 83.046875 89.230469 80.035156 L 89.230469 69.933594 C 89.230469 66.867188 87.53125 64.089844 84.867188 62.570312 C 82.574219 61.261719 80.625 59.277344 79.34375 56.703125 C 76.316406 50.632812 78.195312 43.148438 83.742188 39.242188 C 90.601562 34.40625 100.003906 36.6875 103.941406 43.941406 C 107.46875 50.4375 105.199219 58.675781 98.847656 62.453125 C 98.738281 62.519531 98.625 62.585938 98.511719 62.648438 C 95.882812 64.117188 94.285156 66.921875 94.285156 69.933594 L 94.285156 80.035156 C 94.285156 83.101562 95.984375 85.875 98.648438 87.398438 C 98.699219 87.425781 98.746094 87.457031 98.796875 87.484375 C 101.414062 89.023438 104.652344 89.058594 107.28125 87.539062 L 116.035156 82.488281 C 118.65625 80.976562 120.261719 78.167969 120.226562 75.140625 C 120.175781 70.300781 122.664062 65.574219 127.15625 62.980469 C 131.648438 60.390625 136.984375 60.597656 141.152344 63.0625 C 143.753906 64.605469 146.988281 64.617188 149.609375 63.101562 L 158.359375 58.050781 C 160.992188 56.53125 162.582031 53.710938 162.554688 50.671875 C 162.554688 50.617188 162.554688 50.558594 162.554688 50.503906 C 162.566406 47.433594 161.015625 44.574219 158.359375 43.042969 L 149.609375 37.992188 C 146.96875 36.464844 143.726562 36.523438 141.09375 38.066406 C 141.066406 38.082031 141.039062 38.097656 141.015625 38.109375 C 134.386719 41.9375 125.910156 39.667969 122.082031 33.039062 C 118.257812 26.410156 120.527344 17.933594 127.15625 14.109375 C 133.785156 10.28125 142.261719 12.550781 146.085938 19.179688 C 147.382812 21.425781 147.976562 23.878906 147.941406 26.292969 C 147.898438 29.3125 149.523438 32.105469 152.136719 33.613281 L 160.886719 38.664062 C 163.527344 40.191406 166.769531 40.132812 169.402344 38.589844 C 169.429688 38.574219 169.457031 38.558594 169.480469 38.542969 C 176.394531 34.554688 185.320312 37.195312 188.882812 44.496094 C 191.867188 50.621094 189.886719 58.113281 184.265625 61.964844 C 183.90625 62.210938 183.539062 62.441406 183.167969 62.648438 C 180.535156 64.117188 178.9375 66.921875 178.9375 69.933594 L 178.9375 80.035156 C 178.9375 83.101562 180.640625 85.875 183.300781 87.398438 Z M 183.300781 87.398438 " clip-rule="nonzero"/></clipPath><linearGradient x1="-20.172032" gradientTransform="matrix(0.250942, 0, 0, 0.250942, 77.90295, 12.248201)" y1="494.054043" x2="467.79468" gradientUnits="userSpaceOnUse" y2="6.087309" id="25b723cbdd"><stop stop-opacity="1" stop-color="rgb(45.098877%, 24.699402%, 97.599792%)" offset="0"/><stop stop-opacity="1" stop-color="rgb(45.098877%, 24.699402%, 97.599792%)" offset="0.125"/><stop stop-opacity="1" stop-color="rgb(45.098877%, 24.699402%, 97.599792%)" offset="0.140625"/><stop stop-opacity="1" stop-color="rgb(45.13092%, 24.714661%, 97.561646%)" offset="0.148437"/><stop stop-opacity="1" stop-color="rgb(45.425415%, 24.856567%, 97.215271%)" offset="0.152344"/><stop stop-opacity="1" stop-color="rgb(45.687866%, 24.983215%, 96.908569%)" offset="0.15625"/><stop stop-opacity="1" stop-color="rgb(45.950317%, 25.108337%, 96.600342%)" offset="0.160156"/><stop stop-opacity="1" stop-color="rgb(46.212769%, 25.234985%, 96.292114%)" offset="0.164062"/><stop stop-opacity="1" stop-color="rgb(46.47522%, 25.361633%, 95.983887%)" offset="0.167969"/><stop stop-opacity="1" stop-color="rgb(46.737671%, 25.488281%, 95.677185%)" offset="0.171875"/><stop stop-opacity="1" stop-color="rgb(47.000122%, 25.613403%, 95.368958%)" offset="0.175781"/><stop stop-opacity="1" stop-color="rgb(47.264099%, 25.740051%, 95.06073%)" offset="0.179688"/><stop stop-opacity="1" stop-color="rgb(47.52655%, 25.866699%, 94.752502%)" offset="0.183594"/><stop stop-opacity="1" stop-color="rgb(47.789001%, 25.993347%, 94.444275%)" offset="0.1875"/><stop stop-opacity="1" stop-color="rgb(48.051453%, 26.118469%, 94.136047%)" offset="0.191406"/><stop stop-opacity="1" stop-color="rgb(48.313904%, 26.245117%, 93.829346%)" offset="0.195312"/><stop stop-opacity="1" stop-color="rgb(48.576355%, 26.371765%, 93.521118%)" offset="0.199219"/><stop stop-opacity="1" stop-color="rgb(48.838806%, 26.498413%, 93.212891%)" offset="0.203125"/><stop stop-opacity="1" stop-color="rgb(49.101257%, 26.623535%, 92.904663%)" offset="0.207031"/><stop stop-opacity="1" stop-color="rgb(49.363708%, 26.750183%, 92.597961%)" offset="0.210937"/><stop stop-opacity="1" stop-color="rgb(49.62616%, 26.876831%, 92.289734%)" offset="0.214844"/><stop stop-opacity="1" stop-color="rgb(49.888611%, 27.003479%, 91.981506%)" offset="0.21875"/><stop stop-opacity="1" stop-color="rgb(50.151062%, 27.128601%, 91.673279%)" offset="0.222656"/><stop stop-opacity="1" stop-color="rgb(50.413513%, 27.255249%, 91.365051%)" offset="0.226562"/><stop stop-opacity="1" stop-color="rgb(50.675964%, 27.381897%, 91.056824%)" offset="0.230469"/><stop stop-opacity="1" stop-color="rgb(50.938416%, 27.508545%, 90.750122%)" offset="0.234375"/><stop stop-opacity="1" stop-color="rgb(51.200867%, 27.633667%, 90.441895%)" offset="0.238281"/><stop stop-opacity="1" stop-color="rgb(51.463318%, 27.760315%, 90.133667%)" offset="0.242187"/><stop stop-opacity="1" stop-color="rgb(51.725769%, 27.886963%, 89.825439%)" offset="0.246094"/><stop stop-opacity="1" stop-color="rgb(51.98822%, 28.013611%, 89.517212%)" offset="0.25"/><stop stop-opacity="1" stop-color="rgb(52.250671%, 28.138733%, 89.208984%)" offset="0.253906"/><stop stop-opacity="1" stop-color="rgb(52.513123%, 28.265381%, 88.902283%)" offset="0.257812"/><stop stop-opacity="1" stop-color="rgb(52.775574%, 28.392029%, 88.594055%)" offset="0.261719"/><stop stop-opacity="1" stop-color="rgb(53.038025%, 28.518677%, 88.285828%)" offset="0.265625"/><stop stop-opacity="1" stop-color="rgb(53.300476%, 28.643799%, 87.9776%)" offset="0.269531"/><stop stop-opacity="1" stop-color="rgb(53.564453%, 28.770447%, 87.670898%)" offset="0.273438"/><stop stop-opacity="1" stop-color="rgb(53.826904%, 28.897095%, 87.362671%)" offset="0.277344"/><stop stop-opacity="1" stop-color="rgb(54.089355%, 29.023743%, 87.054443%)" offset="0.28125"/><stop stop-opacity="1" stop-color="rgb(54.351807%, 29.148865%, 86.746216%)" offset="0.285156"/><stop stop-opacity="1" stop-color="rgb(54.614258%, 29.275513%, 86.437988%)" offset="0.289062"/><stop stop-opacity="1" stop-color="rgb(54.876709%, 29.402161%, 86.129761%)" offset="0.292969"/><stop stop-opacity="1" stop-color="rgb(55.13916%, 29.528809%, 85.823059%)" offset="0.296875"/><stop stop-opacity="1" stop-color="rgb(55.401611%, 29.653931%, 85.514832%)" offset="0.300781"/><stop stop-opacity="1" stop-color="rgb(55.664062%, 29.780579%, 85.206604%)" offset="0.304688"/><stop stop-opacity="1" stop-color="rgb(55.926514%, 29.907227%, 84.898376%)" offset="0.308594"/><stop stop-opacity="1" stop-color="rgb(56.188965%, 30.033875%, 84.591675%)" offset="0.3125"/><stop stop-opacity="1" stop-color="rgb(56.451416%, 30.158997%, 84.283447%)" offset="0.316406"/><stop stop-opacity="1" stop-color="rgb(56.713867%, 30.285645%, 83.97522%)" offset="0.320312"/><stop stop-opacity="1" stop-color="rgb(56.976318%, 30.412292%, 83.666992%)" offset="0.324219"/><stop stop-opacity="1" stop-color="rgb(57.23877%, 30.53894%, 83.358765%)" offset="0.328125"/><stop stop-opacity="1" stop-color="rgb(57.501221%, 30.664062%, 83.050537%)" offset="0.332031"/><stop stop-opacity="1" stop-color="rgb(57.763672%, 30.79071%, 82.743835%)" offset="0.335938"/><stop stop-opacity="1" stop-color="rgb(58.026123%, 30.917358%, 82.435608%)" offset="0.339844"/><stop stop-opacity="1" stop-color="rgb(58.288574%, 31.044006%, 82.12738%)" offset="0.34375"/><stop stop-opacity="1" stop-color="rgb(58.551025%, 31.169128%, 81.819153%)" offset="0.347656"/><stop stop-opacity="1" stop-color="rgb(58.813477%, 31.295776%, 81.512451%)" offset="0.351562"/><stop stop-opacity="1" stop-color="rgb(59.075928%, 31.422424%, 81.204224%)" offset="0.355469"/><stop stop-opacity="1" stop-color="rgb(59.338379%, 31.549072%, 80.895996%)" offset="0.359375"/><stop stop-opacity="1" stop-color="rgb(59.60083%, 31.674194%, 80.587769%)" offset="0.363281"/><stop stop-opacity="1" stop-color="rgb(59.864807%, 31.800842%, 80.279541%)" offset="0.367188"/><stop stop-opacity="1" stop-color="rgb(60.127258%, 31.92749%, 79.971313%)" offset="0.371094"/><stop stop-opacity="1" stop-color="rgb(60.389709%, 32.054138%, 79.664612%)" offset="0.375"/><stop stop-opacity="1" stop-color="rgb(60.652161%, 32.17926%, 79.356384%)" offset="0.378906"/><stop stop-opacity="1" stop-color="rgb(60.914612%, 32.305908%, 79.048157%)" offset="0.382812"/><stop stop-opacity="1" stop-color="rgb(61.177063%, 32.432556%, 78.739929%)" offset="0.386719"/><stop stop-opacity="1" stop-color="rgb(61.439514%, 32.559204%, 78.433228%)" offset="0.390625"/><stop stop-opacity="1" stop-color="rgb(61.701965%, 32.684326%, 78.125%)" offset="0.394531"/><stop stop-opacity="1" stop-color="rgb(61.964417%, 32.810974%, 77.816772%)" offset="0.398437"/><stop stop-opacity="1" stop-color="rgb(62.226868%, 32.937622%, 77.508545%)" offset="0.402344"/><stop stop-opacity="1" stop-color="rgb(62.489319%, 33.06427%, 77.200317%)" offset="0.40625"/><stop stop-opacity="1" stop-color="rgb(62.75177%, 33.189392%, 76.89209%)" offset="0.410156"/><stop stop-opacity="1" stop-color="rgb(63.014221%, 33.31604%, 76.585388%)" offset="0.414062"/><stop stop-opacity="1" stop-color="rgb(63.276672%, 33.442688%, 76.277161%)" offset="0.417969"/><stop stop-opacity="1" stop-color="rgb(63.539124%, 33.569336%, 75.968933%)" offset="0.421875"/><stop stop-opacity="1" stop-color="rgb(63.801575%, 33.694458%, 75.660706%)" offset="0.425781"/><stop stop-opacity="1" stop-color="rgb(64.064026%, 33.821106%, 75.354004%)" offset="0.429687"/><stop stop-opacity="1" stop-color="rgb(64.326477%, 33.947754%, 75.045776%)" offset="0.433594"/><stop stop-opacity="1" stop-color="rgb(64.588928%, 34.074402%, 74.737549%)" offset="0.4375"/><stop stop-opacity="1" stop-color="rgb(64.851379%, 34.199524%, 74.429321%)" offset="0.441406"/><stop stop-opacity="1" stop-color="rgb(65.113831%, 34.326172%, 74.121094%)" offset="0.445312"/><stop stop-opacity="1" stop-color="rgb(65.376282%, 34.45282%, 73.812866%)" offset="0.449219"/><stop stop-opacity="1" stop-color="rgb(65.638733%, 34.579468%, 73.506165%)" offset="0.453125"/><stop stop-opacity="1" stop-color="rgb(65.901184%, 34.70459%, 73.197937%)" offset="0.457031"/><stop stop-opacity="1" stop-color="rgb(66.163635%, 34.831238%, 72.889709%)" offset="0.460937"/><stop stop-opacity="1" stop-color="rgb(66.426086%, 34.957886%, 72.581482%)" offset="0.464844"/><stop stop-opacity="1" stop-color="rgb(66.690063%, 35.084534%, 72.27478%)" offset="0.46875"/><stop stop-opacity="1" stop-color="rgb(66.952515%, 35.209656%, 71.966553%)" offset="0.472656"/><stop stop-opacity="1" stop-color="rgb(67.214966%, 35.336304%, 71.658325%)" offset="0.476562"/><stop stop-opacity="1" stop-color="rgb(67.477417%, 35.462952%, 71.350098%)" offset="0.480469"/><stop stop-opacity="1" stop-color="rgb(67.739868%, 35.5896%, 71.04187%)" offset="0.484375"/><stop stop-opacity="1" stop-color="rgb(68.002319%, 35.714722%, 70.733643%)" offset="0.488281"/><stop stop-opacity="1" stop-color="rgb(68.264771%, 35.84137%, 70.426941%)" offset="0.492188"/><stop stop-opacity="1" stop-color="rgb(68.527222%, 35.968018%, 70.118713%)" offset="0.496094"/><stop stop-opacity="1" stop-color="rgb(68.789673%, 36.094666%, 69.810486%)" offset="0.5"/><stop stop-opacity="1" stop-color="rgb(69.052124%, 36.219788%, 69.502258%)" offset="0.503906"/><stop stop-opacity="1" stop-color="rgb(69.314575%, 36.346436%, 69.195557%)" offset="0.507812"/><stop stop-opacity="1" stop-color="rgb(69.577026%, 36.473083%, 68.887329%)" offset="0.511719"/><stop stop-opacity="1" stop-color="rgb(69.839478%, 36.599731%, 68.579102%)" offset="0.515625"/><stop stop-opacity="1" stop-color="rgb(70.101929%, 36.724854%, 68.270874%)" offset="0.519531"/><stop stop-opacity="1" stop-color="rgb(70.36438%, 36.851501%, 67.962646%)" offset="0.523438"/><stop stop-opacity="1" stop-color="rgb(70.626831%, 36.978149%, 67.654419%)" offset="0.527344"/><stop stop-opacity="1" stop-color="rgb(70.889282%, 37.104797%, 67.347717%)" offset="0.53125"/><stop stop-opacity="1" stop-color="rgb(71.151733%, 37.229919%, 67.03949%)" offset="0.535156"/><stop stop-opacity="1" stop-color="rgb(71.414185%, 37.356567%, 66.731262%)" offset="0.539062"/><stop stop-opacity="1" stop-color="rgb(71.676636%, 37.483215%, 66.423035%)" offset="0.542969"/><stop stop-opacity="1" stop-color="rgb(71.939087%, 37.609863%, 66.114807%)" offset="0.546875"/><stop stop-opacity="1" stop-color="rgb(72.201538%, 37.734985%, 65.80658%)" offset="0.550781"/><stop stop-opacity="1" stop-color="rgb(72.463989%, 37.861633%, 65.499878%)" offset="0.554688"/><stop stop-opacity="1" stop-color="rgb(72.72644%, 37.988281%, 65.19165%)" offset="0.558594"/><stop stop-opacity="1" stop-color="rgb(72.990417%, 38.114929%, 64.883423%)" offset="0.5625"/><stop stop-opacity="1" stop-color="rgb(73.252869%, 38.240051%, 64.575195%)" offset="0.566406"/><stop stop-opacity="1" stop-color="rgb(73.51532%, 38.366699%, 64.268494%)" offset="0.570312"/><stop stop-opacity="1" stop-color="rgb(73.777771%, 38.493347%, 63.960266%)" offset="0.574219"/><stop stop-opacity="1" stop-color="rgb(74.040222%, 38.619995%, 63.652039%)" offset="0.578125"/><stop stop-opacity="1" stop-color="rgb(74.302673%, 38.746643%, 63.343811%)" offset="0.582031"/><stop stop-opacity="1" stop-color="rgb(74.565125%, 38.873291%, 63.035583%)" offset="0.585937"/><stop stop-opacity="1" stop-color="rgb(74.827576%, 38.998413%, 62.727356%)" offset="0.589844"/><stop stop-opacity="1" stop-color="rgb(75.090027%, 39.125061%, 62.420654%)" offset="0.59375"/><stop stop-opacity="1" stop-color="rgb(75.352478%, 39.251709%, 62.112427%)" offset="0.597656"/><stop stop-opacity="1" stop-color="rgb(75.614929%, 39.378357%, 61.804199%)" offset="0.601562"/><stop stop-opacity="1" stop-color="rgb(75.87738%, 39.503479%, 61.495972%)" offset="0.605469"/><stop stop-opacity="1" stop-color="rgb(76.139832%, 39.630127%, 61.18927%)" offset="0.609375"/><stop stop-opacity="1" stop-color="rgb(76.402283%, 39.756775%, 60.881042%)" offset="0.613281"/><stop stop-opacity="1" stop-color="rgb(76.664734%, 39.883423%, 60.572815%)" offset="0.617188"/><stop stop-opacity="1" stop-color="rgb(76.927185%, 40.008545%, 60.264587%)" offset="0.621094"/><stop stop-opacity="1" stop-color="rgb(77.189636%, 40.135193%, 59.95636%)" offset="0.625"/><stop stop-opacity="1" stop-color="rgb(77.452087%, 40.261841%, 59.648132%)" offset="0.628906"/><stop stop-opacity="1" stop-color="rgb(77.714539%, 40.388489%, 59.341431%)" offset="0.632812"/><stop stop-opacity="1" stop-color="rgb(77.97699%, 40.513611%, 59.033203%)" offset="0.636719"/><stop stop-opacity="1" stop-color="rgb(78.239441%, 40.640259%, 58.724976%)" offset="0.640625"/><stop stop-opacity="1" stop-color="rgb(78.501892%, 40.766907%, 58.416748%)" offset="0.644531"/><stop stop-opacity="1" stop-color="rgb(78.764343%, 40.893555%, 58.110046%)" offset="0.648438"/><stop stop-opacity="1" stop-color="rgb(79.026794%, 41.018677%, 57.801819%)" offset="0.652344"/><stop stop-opacity="1" stop-color="rgb(79.290771%, 41.145325%, 57.493591%)" offset="0.65625"/><stop stop-opacity="1" stop-color="rgb(79.553223%, 41.271973%, 57.185364%)" offset="0.660156"/><stop stop-opacity="1" stop-color="rgb(79.815674%, 41.398621%, 56.877136%)" offset="0.664062"/><stop stop-opacity="1" stop-color="rgb(80.078125%, 41.523743%, 56.568909%)" offset="0.667969"/><stop stop-opacity="1" stop-color="rgb(80.340576%, 41.650391%, 56.262207%)" offset="0.671875"/><stop stop-opacity="1" stop-color="rgb(80.603027%, 41.777039%, 55.953979%)" offset="0.675781"/><stop stop-opacity="1" stop-color="rgb(80.865479%, 41.903687%, 55.645752%)" offset="0.679687"/><stop stop-opacity="1" stop-color="rgb(81.12793%, 42.028809%, 55.337524%)" offset="0.683594"/><stop stop-opacity="1" stop-color="rgb(81.390381%, 42.155457%, 55.030823%)" offset="0.6875"/><stop stop-opacity="1" stop-color="rgb(81.652832%, 42.282104%, 54.722595%)" offset="0.691406"/><stop stop-opacity="1" stop-color="rgb(81.915283%, 42.408752%, 54.414368%)" offset="0.695312"/><stop stop-opacity="1" stop-color="rgb(82.177734%, 42.533875%, 54.10614%)" offset="0.699219"/><stop stop-opacity="1" stop-color="rgb(82.440186%, 42.660522%, 53.797913%)" offset="0.703125"/><stop stop-opacity="1" stop-color="rgb(82.702637%, 42.78717%, 53.489685%)" offset="0.707031"/><stop stop-opacity="1" stop-color="rgb(82.965088%, 42.913818%, 53.182983%)" offset="0.710937"/><stop stop-opacity="1" stop-color="rgb(83.227539%, 43.03894%, 52.874756%)" offset="0.714844"/><stop stop-opacity="1" stop-color="rgb(83.48999%, 43.165588%, 52.566528%)" offset="0.71875"/><stop stop-opacity="1" stop-color="rgb(83.752441%, 43.292236%, 52.258301%)" offset="0.722656"/><stop stop-opacity="1" stop-color="rgb(84.014893%, 43.418884%, 51.951599%)" offset="0.726562"/><stop stop-opacity="1" stop-color="rgb(84.277344%, 43.544006%, 51.643372%)" offset="0.730469"/><stop stop-opacity="1" stop-color="rgb(84.539795%, 43.670654%, 51.335144%)" offset="0.734375"/><stop stop-opacity="1" stop-color="rgb(84.802246%, 43.797302%, 51.026917%)" offset="0.738281"/><stop stop-opacity="1" stop-color="rgb(85.064697%, 43.92395%, 50.718689%)" offset="0.742188"/><stop stop-opacity="1" stop-color="rgb(85.327148%, 44.049072%, 50.410461%)" offset="0.746094"/><stop stop-opacity="1" stop-color="rgb(85.5896%, 44.17572%, 50.10376%)" offset="0.75"/><stop stop-opacity="1" stop-color="rgb(85.852051%, 44.302368%, 49.795532%)" offset="0.753906"/><stop stop-opacity="1" stop-color="rgb(86.116028%, 44.429016%, 49.487305%)" offset="0.757812"/><stop stop-opacity="1" stop-color="rgb(86.378479%, 44.554138%, 49.179077%)" offset="0.761719"/><stop stop-opacity="1" stop-color="rgb(86.64093%, 44.680786%, 48.872375%)" offset="0.765625"/><stop stop-opacity="1" stop-color="rgb(86.903381%, 44.807434%, 48.564148%)" offset="0.769531"/><stop stop-opacity="1" stop-color="rgb(87.165833%, 44.934082%, 48.25592%)" offset="0.773437"/><stop stop-opacity="1" stop-color="rgb(87.428284%, 45.059204%, 47.947693%)" offset="0.777344"/><stop stop-opacity="1" stop-color="rgb(87.690735%, 45.185852%, 47.639465%)" offset="0.78125"/><stop stop-opacity="1" stop-color="rgb(87.953186%, 45.3125%, 47.331238%)" offset="0.785156"/><stop stop-opacity="1" stop-color="rgb(88.215637%, 45.439148%, 47.024536%)" offset="0.789062"/><stop stop-opacity="1" stop-color="rgb(88.478088%, 45.56427%, 46.716309%)" offset="0.792969"/><stop stop-opacity="1" stop-color="rgb(88.74054%, 45.690918%, 46.408081%)" offset="0.796875"/><stop stop-opacity="1" stop-color="rgb(89.002991%, 45.817566%, 46.099854%)" offset="0.800781"/><stop stop-opacity="1" stop-color="rgb(89.265442%, 45.944214%, 45.793152%)" offset="0.804688"/><stop stop-opacity="1" stop-color="rgb(89.527893%, 46.069336%, 45.484924%)" offset="0.808594"/><stop stop-opacity="1" stop-color="rgb(89.790344%, 46.195984%, 45.176697%)" offset="0.8125"/><stop stop-opacity="1" stop-color="rgb(90.052795%, 46.322632%, 44.868469%)" offset="0.816406"/><stop stop-opacity="1" stop-color="rgb(90.315247%, 46.44928%, 44.560242%)" offset="0.820312"/><stop stop-opacity="1" stop-color="rgb(90.577698%, 46.574402%, 44.252014%)" offset="0.824219"/><stop stop-opacity="1" stop-color="rgb(90.840149%, 46.70105%, 43.945312%)" offset="0.828125"/><stop stop-opacity="1" stop-color="rgb(91.1026%, 46.827698%, 43.637085%)" offset="0.832031"/><stop stop-opacity="1" stop-color="rgb(91.365051%, 46.954346%, 43.328857%)" offset="0.835938"/><stop stop-opacity="1" stop-color="rgb(91.627502%, 47.079468%, 43.02063%)" offset="0.839844"/><stop stop-opacity="1" stop-color="rgb(91.889954%, 47.206116%, 42.712402%)" offset="0.84375"/><stop stop-opacity="1" stop-color="rgb(92.152405%, 47.332764%, 42.404175%)" offset="0.847656"/><stop stop-opacity="1" stop-color="rgb(92.416382%, 47.459412%, 42.097473%)" offset="0.851562"/><stop stop-opacity="1" stop-color="rgb(92.457581%, 47.479248%, 42.048645%)" offset="0.859375"/><stop stop-opacity="1" stop-color="rgb(92.498779%, 47.499084%, 41.999817%)" offset="0.875"/><stop stop-opacity="1" stop-color="rgb(92.498779%, 47.499084%, 41.999817%)" offset="1"/></linearGradient></defs><g clip-path="url(#869b6d13c7)"><g clip-path="url(#4703c978db)"><path fill="url(#25b723cbdd)" d="M 76.300781 10.28125 L 76.300781 139.6875 L 191.796875 139.6875 L 191.796875 10.28125 Z M 76.300781 10.28125 " fill-rule="nonzero"/></g></g><g fill="#ec796b" fill-opacity="1"><g transform="translate(221.947902, 102.589771)"><g><path d="M 46.921875 -33.765625 L 46.921875 -57.640625 L 60 -57.640625 L 60 0 L 46.921875 0 L 46.921875 -22.3125 L 17.984375 -22.3125 L 17.984375 0 L 4.90625 0 L 4.90625 -57.640625 L 17.984375 -57.640625 L 17.984375 -33.765625 Z M 46.921875 -33.765625 "/></g></g></g><g fill="#ec796b" fill-opacity="1"><g transform="translate(286.85738, 102.589771)"><g><path d="M 20.1875 -45.375 C 17.789062 -45.375 15.910156 -45.929688 14.546875 -47.046875 C 13.179688 -48.160156 12.5 -49.78125 12.5 -51.90625 C 12.5 -53.976562 13.179688 -55.585938 14.546875 -56.734375 C 15.910156 -57.878906 17.789062 -58.453125 20.1875 -58.453125 C 22.59375 -58.453125 24.503906 -57.878906 25.921875 -56.734375 C 27.335938 -55.585938 28.046875 -53.976562 28.046875 -51.90625 C 28.046875 -49.78125 27.335938 -48.160156 25.921875 -47.046875 C 24.503906 -45.929688 22.59375 -45.375 20.1875 -45.375 Z M 39.234375 0 L 3.265625 0 L 3.265625 -11.4375 L 14.953125 -11.4375 L 14.953125 -30.328125 L 4.90625 -29.84375 L 4.90625 -41.28125 L 20.4375 -42.09375 C 22.726562 -42.207031 24.484375 -41.664062 25.703125 -40.46875 C 26.929688 -39.269531 27.546875 -37.523438 27.546875 -35.234375 L 27.546875 -11.4375 L 39.234375 -11.4375 Z M 39.234375 0 "/></g></g></g><g fill="#ec796b" fill-opacity="1"><g transform="translate(327.732366, 102.589771)"><g><path d="M 26.484375 -11.4375 L 35.890625 -41.28125 L 48.8125 -41.28125 L 35.484375 0 L 14.21875 0 L 0.8125 -41.28125 L 13.734375 -41.28125 L 23.21875 -11.4375 Z M 26.484375 -11.4375 "/></g></g></g><g fill="#ec796b" fill-opacity="1"><g transform="translate(377.354598, 102.589771)"><g><path d="M 3.265625 -21.171875 C 3.265625 -25.535156 4.191406 -29.28125 6.046875 -32.40625 C 7.898438 -35.539062 10.460938 -37.9375 13.734375 -39.59375 C 17.003906 -41.257812 20.765625 -42.09375 25.015625 -42.09375 C 29.316406 -42.09375 33.101562 -41.289062 36.375 -39.6875 C 39.644531 -38.082031 42.207031 -35.78125 44.0625 -32.78125 C 45.914062 -29.78125 46.84375 -26.179688 46.84375 -21.984375 L 46.84375 -17.90625 L 15.53125 -17.90625 C 15.53125 -15.5625 16.414062 -13.625 18.1875 -12.09375 C 19.957031 -10.570312 22.695312 -9.8125 26.40625 -9.8125 C 28.695312 -9.8125 30.644531 -10.21875 32.25 -11.03125 C 33.851562 -11.851562 34.847656 -13.023438 35.234375 -14.546875 L 48.3125 -14.546875 C 48.09375 -13.078125 47.503906 -11.457031 46.546875 -9.6875 C 45.597656 -7.914062 44.222656 -6.222656 42.421875 -4.609375 C 40.628906 -3.003906 38.410156 -1.695312 35.765625 -0.6875 C 33.117188 0.3125 30 0.8125 26.40625 0.8125 C 21.113281 0.8125 16.765625 -0.207031 13.359375 -2.25 C 9.953125 -4.289062 7.414062 -6.988281 5.75 -10.34375 C 4.09375 -13.695312 3.265625 -17.304688 3.265625 -21.171875 Z M 15.53125 -25.265625 L 34.578125 -25.265625 C 34.578125 -26.835938 33.894531 -28.265625 32.53125 -29.546875 C 31.175781 -30.828125 28.671875 -31.46875 25.015625 -31.46875 C 21.359375 -31.46875 18.863281 -30.828125 17.53125 -29.546875 C 16.195312 -28.265625 15.53125 -26.835938 15.53125 -25.265625 Z M 15.53125 -25.265625 "/></g></g></g><g fill="#ec796b" fill-opacity="1"><g transform="translate(428.938827, 102.589771)"><g><path d="M 17.984375 0 L 4.90625 0 L 4.90625 -57.640625 L 46.03125 -57.640625 L 46.03125 -46.1875 L 17.984375 -46.1875 L 17.984375 -29.59375 L 44.140625 -31.234375 L 44.140625 -19.625 L 17.984375 -17.984375 Z M 17.984375 0 "/></g></g></g><g fill="#ec796b" fill-opacity="1"><g transform="translate(478.234066, 102.589771)"><g><path d="M 20.1875 -45.375 C 17.789062 -45.375 15.910156 -45.929688 14.546875 -47.046875 C 13.179688 -48.160156 12.5 -49.78125 12.5 -51.90625 C 12.5 -53.976562 13.179688 -55.585938 14.546875 -56.734375 C 15.910156 -57.878906 17.789062 -58.453125 20.1875 -58.453125 C 22.59375 -58.453125 24.503906 -57.878906 25.921875 -56.734375 C 27.335938 -55.585938 28.046875 -53.976562 28.046875 -51.90625 C 28.046875 -49.78125 27.335938 -48.160156 25.921875 -47.046875 C 24.503906 -45.929688 22.59375 -45.375 20.1875 -45.375 Z M 39.234375 0 L 3.265625 0 L 3.265625 -11.4375 L 14.953125 -11.4375 L 14.953125 -30.328125 L 4.90625 -29.84375 L 4.90625 -41.28125 L 20.4375 -42.09375 C 22.726562 -42.207031 24.484375 -41.664062 25.703125 -40.46875 C 26.929688 -39.269531 27.546875 -37.523438 27.546875 -35.234375 L 27.546875 -11.4375 L 39.234375 -11.4375 Z M 39.234375 0 "/></g></g></g></svg>