<svg xmlns="http://www.w3.org/2000/svg" xmlns:xlink="http://www.w3.org/1999/xlink" width="500" zoomAndPan="magnify" viewBox="0 0 375 374.999991" height="500" preserveAspectRatio="xMidYMid meet" version="1.0"><defs><g/><clipPath id="fde81d8026"><path d="M 75 18 L 300 18 L 300 270 L 75 270 Z M 75 18 " clip-rule="nonzero"/></clipPath><clipPath id="c8d6e3fc54"><path d="M 285.742188 168.652344 C 290.316406 171.265625 294.210938 175.222656 296.769531 180.359375 C 302.808594 192.480469 299.058594 207.417969 287.988281 215.214844 C 274.289062 224.863281 255.53125 220.308594 247.671875 205.828125 C 240.632812 192.859375 245.160156 176.425781 257.839844 168.878906 C 258.0625 168.75 258.285156 168.621094 258.507812 168.496094 C 263.753906 165.566406 266.945312 159.964844 266.945312 153.957031 L 266.945312 133.792969 C 266.945312 127.671875 263.550781 122.136719 258.238281 119.097656 C 258.136719 119.039062 258.039062 118.984375 257.941406 118.925781 C 252.71875 115.851562 246.253906 115.78125 241.003906 118.8125 L 223.539062 128.898438 C 218.308594 131.917969 215.101562 137.519531 215.167969 143.558594 C 215.269531 153.21875 210.304688 162.652344 201.339844 167.828125 C 192.378906 173.003906 181.722656 172.585938 173.410156 167.667969 C 168.210938 164.589844 161.757812 164.566406 156.527344 167.585938 L 139.0625 177.671875 C 133.808594 180.703125 130.640625 186.332031 130.691406 192.394531 C 130.691406 192.507812 130.691406 192.621094 130.691406 192.734375 C 130.664062 198.859375 133.761719 204.566406 139.0625 207.625 L 156.523438 217.707031 C 161.796875 220.75 168.269531 220.636719 173.523438 217.558594 C 173.574219 217.527344 173.628906 217.496094 173.679688 217.464844 C 186.910156 209.828125 203.828125 214.363281 211.464844 227.589844 C 219.101562 240.820312 214.570312 257.734375 201.339844 265.375 C 188.113281 273.011719 171.195312 268.480469 163.558594 255.25 C 160.972656 250.773438 159.785156 245.871094 159.855469 241.050781 C 159.945312 235.03125 156.699219 229.453125 151.484375 226.441406 L 134.023438 216.359375 C 128.75 213.316406 122.277344 213.429688 117.023438 216.507812 C 116.96875 216.539062 116.917969 216.570312 116.863281 216.601562 C 103.066406 224.566406 85.257812 219.292969 78.148438 204.722656 C 72.183594 192.5 76.140625 177.542969 87.359375 169.855469 C 88.078125 169.363281 88.808594 168.910156 89.550781 168.496094 C 94.800781 165.566406 97.992188 159.964844 97.992188 153.957031 L 97.992188 133.796875 C 97.992188 127.671875 94.597656 122.136719 89.28125 119.097656 C 84.707031 116.484375 80.8125 112.527344 78.253906 107.394531 C 72.21875 95.273438 75.964844 80.335938 87.035156 72.539062 C 100.730469 62.886719 119.488281 67.441406 127.351562 81.917969 C 134.394531 94.886719 129.863281 111.324219 117.183594 118.871094 C 116.964844 119 116.742188 119.128906 116.519531 119.253906 C 111.269531 122.183594 108.078125 127.785156 108.078125 133.796875 L 108.078125 153.957031 C 108.078125 160.078125 111.472656 165.613281 116.789062 168.652344 C 116.886719 168.710938 116.984375 168.765625 117.082031 168.824219 C 122.308594 171.898438 128.769531 171.96875 134.019531 168.9375 L 151.488281 158.851562 C 156.714844 155.832031 159.921875 150.230469 159.859375 144.191406 C 159.753906 134.53125 164.71875 125.097656 173.683594 119.921875 C 182.648438 114.746094 193.300781 115.164062 201.613281 120.082031 C 206.8125 123.160156 213.265625 123.183594 218.496094 120.164062 L 235.964844 110.078125 C 241.214844 107.046875 244.386719 101.417969 244.335938 95.355469 C 244.332031 95.242188 244.332031 95.128906 244.335938 95.015625 C 244.359375 88.890625 241.265625 83.183594 235.960938 80.125 L 218.5 70.042969 C 213.226562 66.996094 206.753906 67.113281 201.5 70.191406 C 201.449219 70.222656 201.394531 70.253906 201.34375 70.28125 C 188.113281 77.921875 171.199219 73.386719 163.558594 60.160156 C 155.921875 46.929688 160.453125 30.011719 173.683594 22.375 C 186.914062 14.738281 203.828125 19.269531 211.46875 32.5 C 214.054688 36.976562 215.242188 41.878906 215.167969 46.699219 C 215.082031 52.71875 218.328125 58.296875 223.542969 61.308594 L 241.003906 71.390625 C 246.277344 74.433594 252.75 74.320312 258.003906 71.238281 C 258.054688 71.210938 258.109375 71.179688 258.160156 71.148438 C 271.960938 63.179688 289.769531 68.457031 296.878906 83.03125 C 302.839844 95.25 298.882812 110.207031 287.664062 117.894531 C 286.945312 118.386719 286.214844 118.839844 285.472656 119.253906 C 280.222656 122.183594 277.03125 127.785156 277.03125 133.796875 L 277.03125 153.957031 C 277.03125 160.078125 280.425781 165.613281 285.742188 168.652344 Z M 285.742188 168.652344 " clip-rule="nonzero"/></clipPath><linearGradient x1="-19.884245" gradientTransform="matrix(0.50084, 0, 0, 0.50084, 75.382785, 18.66492)" y1="493.766257" x2="467.936474" gradientUnits="userSpaceOnUse" y2="5.945515" id="ad08c5f7e6"><stop stop-opacity="1" stop-color="rgb(45.098877%, 24.699402%, 97.599792%)" offset="0"/><stop stop-opacity="1" stop-color="rgb(45.098877%, 24.699402%, 97.599792%)" offset="0.125"/><stop stop-opacity="1" stop-color="rgb(45.098877%, 24.699402%, 97.599792%)" offset="0.140625"/><stop stop-opacity="1" stop-color="rgb(45.149231%, 24.723816%, 97.540283%)" offset="0.148438"/><stop stop-opacity="1" stop-color="rgb(45.462036%, 24.873352%, 97.172546%)" offset="0.152344"/><stop stop-opacity="1" stop-color="rgb(45.724487%, 25%, 96.865845%)" offset="0.15625"/><stop stop-opacity="1" stop-color="rgb(45.986938%, 25.126648%, 96.557617%)" offset="0.160156"/><stop stop-opacity="1" stop-color="rgb(46.24939%, 25.253296%, 96.24939%)" offset="0.164062"/><stop stop-opacity="1" stop-color="rgb(46.511841%, 25.378418%, 95.941162%)" offset="0.167969"/><stop stop-opacity="1" stop-color="rgb(46.774292%, 25.505066%, 95.63446%)" offset="0.171875"/><stop stop-opacity="1" stop-color="rgb(47.036743%, 25.630188%, 95.326233%)" offset="0.175781"/><stop stop-opacity="1" stop-color="rgb(47.299194%, 25.756836%, 95.018005%)" offset="0.179688"/><stop stop-opacity="1" stop-color="rgb(47.561646%, 25.883484%, 94.709778%)" offset="0.183594"/><stop stop-opacity="1" stop-color="rgb(47.824097%, 26.010132%, 94.403076%)" offset="0.1875"/><stop stop-opacity="1" stop-color="rgb(48.086548%, 26.135254%, 94.094849%)" offset="0.191406"/><stop stop-opacity="1" stop-color="rgb(48.348999%, 26.261902%, 93.786621%)" offset="0.195312"/><stop stop-opacity="1" stop-color="rgb(48.61145%, 26.38855%, 93.478394%)" offset="0.199219"/><stop stop-opacity="1" stop-color="rgb(48.873901%, 26.515198%, 93.171692%)" offset="0.203125"/><stop stop-opacity="1" stop-color="rgb(49.136353%, 26.64032%, 92.863464%)" offset="0.207031"/><stop stop-opacity="1" stop-color="rgb(49.398804%, 26.766968%, 92.555237%)" offset="0.210938"/><stop stop-opacity="1" stop-color="rgb(49.661255%, 26.893616%, 92.247009%)" offset="0.214844"/><stop stop-opacity="1" stop-color="rgb(49.923706%, 27.020264%, 91.940308%)" offset="0.21875"/><stop stop-opacity="1" stop-color="rgb(50.186157%, 27.145386%, 91.63208%)" offset="0.222656"/><stop stop-opacity="1" stop-color="rgb(50.448608%, 27.272034%, 91.323853%)" offset="0.226562"/><stop stop-opacity="1" stop-color="rgb(50.71106%, 27.398682%, 91.015625%)" offset="0.230469"/><stop stop-opacity="1" stop-color="rgb(50.973511%, 27.52533%, 90.708923%)" offset="0.234375"/><stop stop-opacity="1" stop-color="rgb(51.235962%, 27.650452%, 90.400696%)" offset="0.238281"/><stop stop-opacity="1" stop-color="rgb(51.498413%, 27.7771%, 90.092468%)" offset="0.242188"/><stop stop-opacity="1" stop-color="rgb(51.760864%, 27.903748%, 89.784241%)" offset="0.246094"/><stop stop-opacity="1" stop-color="rgb(52.023315%, 28.030396%, 89.477539%)" offset="0.25"/><stop stop-opacity="1" stop-color="rgb(52.285767%, 28.155518%, 89.169312%)" offset="0.253906"/><stop stop-opacity="1" stop-color="rgb(52.548218%, 28.282166%, 88.861084%)" offset="0.257812"/><stop stop-opacity="1" stop-color="rgb(52.810669%, 28.408813%, 88.552856%)" offset="0.261719"/><stop stop-opacity="1" stop-color="rgb(53.07312%, 28.535461%, 88.246155%)" offset="0.265625"/><stop stop-opacity="1" stop-color="rgb(53.335571%, 28.660583%, 87.937927%)" offset="0.269531"/><stop stop-opacity="1" stop-color="rgb(53.598022%, 28.787231%, 87.6297%)" offset="0.273438"/><stop stop-opacity="1" stop-color="rgb(53.860474%, 28.912354%, 87.321472%)" offset="0.277344"/><stop stop-opacity="1" stop-color="rgb(54.122925%, 29.039001%, 87.014771%)" offset="0.28125"/><stop stop-opacity="1" stop-color="rgb(54.385376%, 29.165649%, 86.706543%)" offset="0.285156"/><stop stop-opacity="1" stop-color="rgb(54.647827%, 29.292297%, 86.398315%)" offset="0.289062"/><stop stop-opacity="1" stop-color="rgb(54.910278%, 29.417419%, 86.090088%)" offset="0.292969"/><stop stop-opacity="1" stop-color="rgb(55.172729%, 29.544067%, 85.783386%)" offset="0.296875"/><stop stop-opacity="1" stop-color="rgb(55.435181%, 29.670715%, 85.475159%)" offset="0.300781"/><stop stop-opacity="1" stop-color="rgb(55.697632%, 29.797363%, 85.166931%)" offset="0.304687"/><stop stop-opacity="1" stop-color="rgb(55.960083%, 29.922485%, 84.858704%)" offset="0.308594"/><stop stop-opacity="1" stop-color="rgb(56.222534%, 30.049133%, 84.552002%)" offset="0.3125"/><stop stop-opacity="1" stop-color="rgb(56.484985%, 30.175781%, 84.243774%)" offset="0.316406"/><stop stop-opacity="1" stop-color="rgb(56.747437%, 30.302429%, 83.937073%)" offset="0.320312"/><stop stop-opacity="1" stop-color="rgb(57.009888%, 30.427551%, 83.628845%)" offset="0.324219"/><stop stop-opacity="1" stop-color="rgb(57.272339%, 30.554199%, 83.320618%)" offset="0.328125"/><stop stop-opacity="1" stop-color="rgb(57.53479%, 30.680847%, 83.01239%)" offset="0.332031"/><stop stop-opacity="1" stop-color="rgb(57.797241%, 30.807495%, 82.705688%)" offset="0.335937"/><stop stop-opacity="1" stop-color="rgb(58.059692%, 30.932617%, 82.397461%)" offset="0.339844"/><stop stop-opacity="1" stop-color="rgb(58.322144%, 31.059265%, 82.089233%)" offset="0.34375"/><stop stop-opacity="1" stop-color="rgb(58.584595%, 31.185913%, 81.781006%)" offset="0.347656"/><stop stop-opacity="1" stop-color="rgb(58.847046%, 31.312561%, 81.474304%)" offset="0.351562"/><stop stop-opacity="1" stop-color="rgb(59.109497%, 31.437683%, 81.166077%)" offset="0.355469"/><stop stop-opacity="1" stop-color="rgb(59.371948%, 31.564331%, 80.857849%)" offset="0.359375"/><stop stop-opacity="1" stop-color="rgb(59.634399%, 31.689453%, 80.549622%)" offset="0.363281"/><stop stop-opacity="1" stop-color="rgb(59.896851%, 31.816101%, 80.24292%)" offset="0.367187"/><stop stop-opacity="1" stop-color="rgb(60.159302%, 31.942749%, 79.934692%)" offset="0.371094"/><stop stop-opacity="1" stop-color="rgb(60.421753%, 32.069397%, 79.626465%)" offset="0.375"/><stop stop-opacity="1" stop-color="rgb(60.684204%, 32.194519%, 79.318237%)" offset="0.378906"/><stop stop-opacity="1" stop-color="rgb(60.946655%, 32.321167%, 79.011536%)" offset="0.382812"/><stop stop-opacity="1" stop-color="rgb(61.209106%, 32.447815%, 78.703308%)" offset="0.386719"/><stop stop-opacity="1" stop-color="rgb(61.471558%, 32.574463%, 78.395081%)" offset="0.390625"/><stop stop-opacity="1" stop-color="rgb(61.734009%, 32.699585%, 78.086853%)" offset="0.394531"/><stop stop-opacity="1" stop-color="rgb(61.99646%, 32.826233%, 77.780151%)" offset="0.398437"/><stop stop-opacity="1" stop-color="rgb(62.258911%, 32.952881%, 77.471924%)" offset="0.402344"/><stop stop-opacity="1" stop-color="rgb(62.521362%, 33.079529%, 77.163696%)" offset="0.40625"/><stop stop-opacity="1" stop-color="rgb(62.783813%, 33.204651%, 76.855469%)" offset="0.410156"/><stop stop-opacity="1" stop-color="rgb(63.046265%, 33.331299%, 76.548767%)" offset="0.414062"/><stop stop-opacity="1" stop-color="rgb(63.30719%, 33.457947%, 76.24054%)" offset="0.417969"/><stop stop-opacity="1" stop-color="rgb(63.569641%, 33.584595%, 75.932312%)" offset="0.421875"/><stop stop-opacity="1" stop-color="rgb(63.832092%, 33.709717%, 75.624084%)" offset="0.425781"/><stop stop-opacity="1" stop-color="rgb(64.094543%, 33.836365%, 75.317383%)" offset="0.429687"/><stop stop-opacity="1" stop-color="rgb(64.356995%, 33.963013%, 75.009155%)" offset="0.433594"/><stop stop-opacity="1" stop-color="rgb(64.619446%, 34.089661%, 74.700928%)" offset="0.4375"/><stop stop-opacity="1" stop-color="rgb(64.881897%, 34.214783%, 74.3927%)" offset="0.441406"/><stop stop-opacity="1" stop-color="rgb(65.144348%, 34.341431%, 74.085999%)" offset="0.445312"/><stop stop-opacity="1" stop-color="rgb(65.406799%, 34.468079%, 73.777771%)" offset="0.449219"/><stop stop-opacity="1" stop-color="rgb(65.66925%, 34.594727%, 73.469543%)" offset="0.453125"/><stop stop-opacity="1" stop-color="rgb(65.931702%, 34.719849%, 73.161316%)" offset="0.457031"/><stop stop-opacity="1" stop-color="rgb(66.194153%, 34.846497%, 72.854614%)" offset="0.460938"/><stop stop-opacity="1" stop-color="rgb(66.456604%, 34.971619%, 72.546387%)" offset="0.464844"/><stop stop-opacity="1" stop-color="rgb(66.719055%, 35.098267%, 72.238159%)" offset="0.46875"/><stop stop-opacity="1" stop-color="rgb(66.981506%, 35.224915%, 71.929932%)" offset="0.472656"/><stop stop-opacity="1" stop-color="rgb(67.243958%, 35.351562%, 71.62323%)" offset="0.476562"/><stop stop-opacity="1" stop-color="rgb(67.506409%, 35.476685%, 71.315002%)" offset="0.480469"/><stop stop-opacity="1" stop-color="rgb(67.76886%, 35.603333%, 71.006775%)" offset="0.484375"/><stop stop-opacity="1" stop-color="rgb(68.031311%, 35.72998%, 70.698547%)" offset="0.488281"/><stop stop-opacity="1" stop-color="rgb(68.293762%, 35.856628%, 70.391846%)" offset="0.492187"/><stop stop-opacity="1" stop-color="rgb(68.556213%, 35.98175%, 70.083618%)" offset="0.496094"/><stop stop-opacity="1" stop-color="rgb(68.818665%, 36.108398%, 69.775391%)" offset="0.5"/><stop stop-opacity="1" stop-color="rgb(69.081116%, 36.235046%, 69.467163%)" offset="0.503906"/><stop stop-opacity="1" stop-color="rgb(69.343567%, 36.361694%, 69.160461%)" offset="0.507812"/><stop stop-opacity="1" stop-color="rgb(69.606018%, 36.486816%, 68.852234%)" offset="0.511719"/><stop stop-opacity="1" stop-color="rgb(69.868469%, 36.613464%, 68.544006%)" offset="0.515625"/><stop stop-opacity="1" stop-color="rgb(70.13092%, 36.740112%, 68.235779%)" offset="0.519531"/><stop stop-opacity="1" stop-color="rgb(70.393372%, 36.86676%, 67.929077%)" offset="0.523438"/><stop stop-opacity="1" stop-color="rgb(70.655823%, 36.991882%, 67.62085%)" offset="0.527344"/><stop stop-opacity="1" stop-color="rgb(70.918274%, 37.11853%, 67.312622%)" offset="0.53125"/><stop stop-opacity="1" stop-color="rgb(71.180725%, 37.245178%, 67.004395%)" offset="0.535156"/><stop stop-opacity="1" stop-color="rgb(71.443176%, 37.371826%, 66.697693%)" offset="0.539062"/><stop stop-opacity="1" stop-color="rgb(71.705627%, 37.496948%, 66.389465%)" offset="0.542969"/><stop stop-opacity="1" stop-color="rgb(71.968079%, 37.623596%, 66.081238%)" offset="0.546875"/><stop stop-opacity="1" stop-color="rgb(72.23053%, 37.748718%, 65.77301%)" offset="0.550781"/><stop stop-opacity="1" stop-color="rgb(72.492981%, 37.875366%, 65.466309%)" offset="0.554688"/><stop stop-opacity="1" stop-color="rgb(72.755432%, 38.002014%, 65.158081%)" offset="0.558594"/><stop stop-opacity="1" stop-color="rgb(73.017883%, 38.128662%, 64.849854%)" offset="0.5625"/><stop stop-opacity="1" stop-color="rgb(73.280334%, 38.253784%, 64.541626%)" offset="0.566406"/><stop stop-opacity="1" stop-color="rgb(73.542786%, 38.380432%, 64.234924%)" offset="0.570312"/><stop stop-opacity="1" stop-color="rgb(73.805237%, 38.50708%, 63.926697%)" offset="0.574219"/><stop stop-opacity="1" stop-color="rgb(74.067688%, 38.633728%, 63.619995%)" offset="0.578125"/><stop stop-opacity="1" stop-color="rgb(74.330139%, 38.75885%, 63.311768%)" offset="0.582031"/><stop stop-opacity="1" stop-color="rgb(74.59259%, 38.885498%, 63.00354%)" offset="0.585938"/><stop stop-opacity="1" stop-color="rgb(74.855042%, 39.012146%, 62.695312%)" offset="0.589844"/><stop stop-opacity="1" stop-color="rgb(75.117493%, 39.138794%, 62.388611%)" offset="0.59375"/><stop stop-opacity="1" stop-color="rgb(75.379944%, 39.263916%, 62.080383%)" offset="0.597656"/><stop stop-opacity="1" stop-color="rgb(75.642395%, 39.390564%, 61.772156%)" offset="0.601562"/><stop stop-opacity="1" stop-color="rgb(75.904846%, 39.517212%, 61.463928%)" offset="0.605469"/><stop stop-opacity="1" stop-color="rgb(76.167297%, 39.64386%, 61.157227%)" offset="0.609375"/><stop stop-opacity="1" stop-color="rgb(76.429749%, 39.768982%, 60.848999%)" offset="0.613281"/><stop stop-opacity="1" stop-color="rgb(76.6922%, 39.89563%, 60.540771%)" offset="0.617188"/><stop stop-opacity="1" stop-color="rgb(76.954651%, 40.022278%, 60.232544%)" offset="0.621094"/><stop stop-opacity="1" stop-color="rgb(77.217102%, 40.148926%, 59.925842%)" offset="0.625"/><stop stop-opacity="1" stop-color="rgb(77.479553%, 40.274048%, 59.617615%)" offset="0.628906"/><stop stop-opacity="1" stop-color="rgb(77.742004%, 40.400696%, 59.309387%)" offset="0.632812"/><stop stop-opacity="1" stop-color="rgb(78.004456%, 40.525818%, 59.00116%)" offset="0.636719"/><stop stop-opacity="1" stop-color="rgb(78.266907%, 40.652466%, 58.694458%)" offset="0.640625"/><stop stop-opacity="1" stop-color="rgb(78.529358%, 40.779114%, 58.38623%)" offset="0.644531"/><stop stop-opacity="1" stop-color="rgb(78.791809%, 40.905762%, 58.078003%)" offset="0.648438"/><stop stop-opacity="1" stop-color="rgb(79.05426%, 41.030884%, 57.769775%)" offset="0.652344"/><stop stop-opacity="1" stop-color="rgb(79.316711%, 41.157532%, 57.463074%)" offset="0.65625"/><stop stop-opacity="1" stop-color="rgb(79.579163%, 41.28418%, 57.154846%)" offset="0.660156"/><stop stop-opacity="1" stop-color="rgb(79.841614%, 41.410828%, 56.846619%)" offset="0.664062"/><stop stop-opacity="1" stop-color="rgb(80.104065%, 41.53595%, 56.538391%)" offset="0.667969"/><stop stop-opacity="1" stop-color="rgb(80.366516%, 41.662598%, 56.231689%)" offset="0.671875"/><stop stop-opacity="1" stop-color="rgb(80.628967%, 41.789246%, 55.923462%)" offset="0.675781"/><stop stop-opacity="1" stop-color="rgb(80.891418%, 41.915894%, 55.615234%)" offset="0.679688"/><stop stop-opacity="1" stop-color="rgb(81.15387%, 42.041016%, 55.307007%)" offset="0.683594"/><stop stop-opacity="1" stop-color="rgb(81.416321%, 42.167664%, 55.000305%)" offset="0.6875"/><stop stop-opacity="1" stop-color="rgb(81.678772%, 42.294312%, 54.692078%)" offset="0.691406"/><stop stop-opacity="1" stop-color="rgb(81.941223%, 42.420959%, 54.38385%)" offset="0.695312"/><stop stop-opacity="1" stop-color="rgb(82.203674%, 42.546082%, 54.075623%)" offset="0.699219"/><stop stop-opacity="1" stop-color="rgb(82.466125%, 42.672729%, 53.768921%)" offset="0.703125"/><stop stop-opacity="1" stop-color="rgb(82.728577%, 42.799377%, 53.460693%)" offset="0.707031"/><stop stop-opacity="1" stop-color="rgb(82.991028%, 42.926025%, 53.152466%)" offset="0.710938"/><stop stop-opacity="1" stop-color="rgb(83.253479%, 43.051147%, 52.844238%)" offset="0.714844"/><stop stop-opacity="1" stop-color="rgb(83.51593%, 43.177795%, 52.537537%)" offset="0.71875"/><stop stop-opacity="1" stop-color="rgb(83.778381%, 43.304443%, 52.229309%)" offset="0.722656"/><stop stop-opacity="1" stop-color="rgb(84.040833%, 43.431091%, 51.921082%)" offset="0.726562"/><stop stop-opacity="1" stop-color="rgb(84.303284%, 43.556213%, 51.612854%)" offset="0.730469"/><stop stop-opacity="1" stop-color="rgb(84.565735%, 43.682861%, 51.306152%)" offset="0.734375"/><stop stop-opacity="1" stop-color="rgb(84.828186%, 43.807983%, 50.997925%)" offset="0.738281"/><stop stop-opacity="1" stop-color="rgb(85.090637%, 43.934631%, 50.689697%)" offset="0.742188"/><stop stop-opacity="1" stop-color="rgb(85.353088%, 44.061279%, 50.38147%)" offset="0.746094"/><stop stop-opacity="1" stop-color="rgb(85.61554%, 44.187927%, 50.074768%)" offset="0.75"/><stop stop-opacity="1" stop-color="rgb(85.877991%, 44.313049%, 49.766541%)" offset="0.753906"/><stop stop-opacity="1" stop-color="rgb(86.140442%, 44.439697%, 49.458313%)" offset="0.757812"/><stop stop-opacity="1" stop-color="rgb(86.402893%, 44.566345%, 49.150085%)" offset="0.761719"/><stop stop-opacity="1" stop-color="rgb(86.665344%, 44.692993%, 48.843384%)" offset="0.765625"/><stop stop-opacity="1" stop-color="rgb(86.927795%, 44.818115%, 48.535156%)" offset="0.769531"/><stop stop-opacity="1" stop-color="rgb(87.190247%, 44.944763%, 48.226929%)" offset="0.773438"/><stop stop-opacity="1" stop-color="rgb(87.451172%, 45.071411%, 47.918701%)" offset="0.777344"/><stop stop-opacity="1" stop-color="rgb(87.713623%, 45.198059%, 47.612%)" offset="0.78125"/><stop stop-opacity="1" stop-color="rgb(87.976074%, 45.323181%, 47.303772%)" offset="0.785156"/><stop stop-opacity="1" stop-color="rgb(88.238525%, 45.449829%, 46.995544%)" offset="0.789062"/><stop stop-opacity="1" stop-color="rgb(88.500977%, 45.576477%, 46.687317%)" offset="0.792969"/><stop stop-opacity="1" stop-color="rgb(88.763428%, 45.703125%, 46.380615%)" offset="0.796875"/><stop stop-opacity="1" stop-color="rgb(89.025879%, 45.828247%, 46.072388%)" offset="0.800781"/><stop stop-opacity="1" stop-color="rgb(89.28833%, 45.954895%, 45.76416%)" offset="0.804688"/><stop stop-opacity="1" stop-color="rgb(89.550781%, 46.081543%, 45.455933%)" offset="0.808594"/><stop stop-opacity="1" stop-color="rgb(89.813232%, 46.208191%, 45.149231%)" offset="0.8125"/><stop stop-opacity="1" stop-color="rgb(90.075684%, 46.333313%, 44.841003%)" offset="0.816406"/><stop stop-opacity="1" stop-color="rgb(90.338135%, 46.459961%, 44.534302%)" offset="0.820312"/><stop stop-opacity="1" stop-color="rgb(90.600586%, 46.585083%, 44.226074%)" offset="0.824219"/><stop stop-opacity="1" stop-color="rgb(90.863037%, 46.711731%, 43.917847%)" offset="0.828125"/><stop stop-opacity="1" stop-color="rgb(91.125488%, 46.838379%, 43.609619%)" offset="0.832031"/><stop stop-opacity="1" stop-color="rgb(91.387939%, 46.965027%, 43.302917%)" offset="0.835938"/><stop stop-opacity="1" stop-color="rgb(91.650391%, 47.090149%, 42.99469%)" offset="0.839844"/><stop stop-opacity="1" stop-color="rgb(91.912842%, 47.216797%, 42.686462%)" offset="0.84375"/><stop stop-opacity="1" stop-color="rgb(92.175293%, 47.343445%, 42.378235%)" offset="0.847656"/><stop stop-opacity="1" stop-color="rgb(92.437744%, 47.470093%, 42.071533%)" offset="0.851562"/><stop stop-opacity="1" stop-color="rgb(92.468262%, 47.483826%, 42.034912%)" offset="0.859375"/><stop stop-opacity="1" stop-color="rgb(92.498779%, 47.499084%, 41.999817%)" offset="0.875"/><stop stop-opacity="1" stop-color="rgb(92.498779%, 47.499084%, 41.999817%)" offset="1"/></linearGradient></defs><g clip-path="url(#fde81d8026)"><g clip-path="url(#c8d6e3fc54)"><path fill="url(#ad08c5f7e6)" d="M 72.183594 14.738281 L 72.183594 272.722656 L 302.839844 272.722656 L 302.839844 14.738281 Z M 72.183594 14.738281 " fill-rule="nonzero"/></g></g><g fill="#ec796b" fill-opacity="1"><g transform="translate(72.919988, 338.829938)"><g><path d="M 36.1875 -26.03125 L 36.1875 -44.4375 L 46.265625 -44.4375 L 46.265625 0 L 36.1875 0 L 36.1875 -17.203125 L 13.859375 -17.203125 L 13.859375 0 L 3.78125 0 L 3.78125 -44.4375 L 13.859375 -44.4375 L 13.859375 -26.03125 Z M 36.1875 -26.03125 "/></g></g></g><g fill="#ec796b" fill-opacity="1"><g transform="translate(122.969874, 338.829938)"><g><path d="M 15.5625 -34.984375 C 13.71875 -34.984375 12.269531 -35.410156 11.21875 -36.265625 C 10.164062 -37.128906 9.640625 -38.382812 9.640625 -40.03125 C 9.640625 -41.625 10.164062 -42.859375 11.21875 -43.734375 C 12.269531 -44.617188 13.71875 -45.0625 15.5625 -45.0625 C 17.414062 -45.0625 18.890625 -44.617188 19.984375 -43.734375 C 21.078125 -42.859375 21.625 -41.625 21.625 -40.03125 C 21.625 -38.382812 21.078125 -37.128906 19.984375 -36.265625 C 18.890625 -35.410156 17.414062 -34.984375 15.5625 -34.984375 Z M 30.25 0 L 2.515625 0 L 2.515625 -8.828125 L 11.53125 -8.828125 L 11.53125 -23.390625 L 3.78125 -23 L 3.78125 -31.828125 L 15.75 -32.46875 C 17.519531 -32.550781 18.875 -32.128906 19.8125 -31.203125 C 20.757812 -30.273438 21.234375 -28.929688 21.234375 -27.171875 L 21.234375 -8.828125 L 30.25 -8.828125 Z M 30.25 0 "/></g></g></g><g fill="#ec796b" fill-opacity="1"><g transform="translate(154.487438, 338.829938)"><g><path d="M 20.421875 -8.828125 L 27.671875 -31.828125 L 37.625 -31.828125 L 27.359375 0 L 10.96875 0 L 0.625 -31.828125 L 10.59375 -31.828125 L 17.90625 -8.828125 Z M 20.421875 -8.828125 "/></g></g></g><g fill="#ec796b" fill-opacity="1"><g transform="translate(192.749761, 338.829938)"><g><path d="M 2.515625 -16.328125 C 2.515625 -19.691406 3.226562 -22.578125 4.65625 -24.984375 C 6.09375 -27.398438 8.070312 -29.25 10.59375 -30.53125 C 13.113281 -31.820312 16.007812 -32.46875 19.28125 -32.46875 C 22.601562 -32.46875 25.523438 -31.847656 28.046875 -30.609375 C 30.566406 -29.367188 32.539062 -27.59375 33.96875 -25.28125 C 35.394531 -22.96875 36.109375 -20.191406 36.109375 -16.953125 L 36.109375 -13.796875 L 11.96875 -13.796875 C 11.96875 -11.992188 12.648438 -10.503906 14.015625 -9.328125 C 15.390625 -8.148438 17.503906 -7.5625 20.359375 -7.5625 C 22.117188 -7.5625 23.617188 -7.875 24.859375 -8.5 C 26.097656 -9.132812 26.867188 -10.039062 27.171875 -11.21875 L 37.25 -11.21875 C 37.082031 -10.082031 36.628906 -8.832031 35.890625 -7.46875 C 35.160156 -6.101562 34.101562 -4.800781 32.71875 -3.5625 C 31.332031 -2.320312 29.617188 -1.3125 27.578125 -0.53125 C 25.535156 0.238281 23.128906 0.625 20.359375 0.625 C 16.285156 0.625 12.929688 -0.160156 10.296875 -1.734375 C 7.671875 -3.304688 5.71875 -5.382812 4.4375 -7.96875 C 3.15625 -10.550781 2.515625 -13.335938 2.515625 -16.328125 Z M 11.96875 -19.484375 L 26.65625 -19.484375 C 26.65625 -20.691406 26.128906 -21.789062 25.078125 -22.78125 C 24.035156 -23.769531 22.101562 -24.265625 19.28125 -24.265625 C 16.46875 -24.265625 14.546875 -23.769531 13.515625 -22.78125 C 12.484375 -21.789062 11.96875 -20.691406 11.96875 -19.484375 Z M 11.96875 -19.484375 "/></g></g></g><g fill="#ec796b" fill-opacity="1"><g transform="translate(232.524924, 338.829938)"><g><path d="M 13.859375 0 L 3.78125 0 L 3.78125 -44.4375 L 35.484375 -44.4375 L 35.484375 -35.609375 L 13.859375 -35.609375 L 13.859375 -22.8125 L 34.03125 -24.078125 L 34.03125 -15.125 L 13.859375 -13.859375 Z M 13.859375 0 "/></g></g></g><g fill="#ec796b" fill-opacity="1"><g transform="translate(270.535111, 338.829938)"><g><path d="M 15.5625 -34.984375 C 13.71875 -34.984375 12.269531 -35.410156 11.21875 -36.265625 C 10.164062 -37.128906 9.640625 -38.382812 9.640625 -40.03125 C 9.640625 -41.625 10.164062 -42.859375 11.21875 -43.734375 C 12.269531 -44.617188 13.71875 -45.0625 15.5625 -45.0625 C 17.414062 -45.0625 18.890625 -44.617188 19.984375 -43.734375 C 21.078125 -42.859375 21.625 -41.625 21.625 -40.03125 C 21.625 -38.382812 21.078125 -37.128906 19.984375 -36.265625 C 18.890625 -35.410156 17.414062 -34.984375 15.5625 -34.984375 Z M 30.25 0 L 2.515625 0 L 2.515625 -8.828125 L 11.53125 -8.828125 L 11.53125 -23.390625 L 3.78125 -23 L 3.78125 -31.828125 L 15.75 -32.46875 C 17.519531 -32.550781 18.875 -32.128906 19.8125 -31.203125 C 20.757812 -30.273438 21.234375 -28.929688 21.234375 -27.171875 L 21.234375 -8.828125 L 30.25 -8.828125 Z M 30.25 0 "/></g></g></g></svg>