<svg xmlns="http://www.w3.org/2000/svg" xmlns:xlink="http://www.w3.org/1999/xlink" width="150" zoomAndPan="magnify" viewBox="0 0 112.5 30.000001" height="40" preserveAspectRatio="xMidYMid meet" version="1.0"><defs><clipPath id="2745251dc5"><path d="M 18 0.863281 L 21 0.863281 L 21 11 L 18 11 Z M 18 0.863281 " clip-rule="nonzero"/></clipPath><clipPath id="06dc11bb17"><path d="M 4.484375 12 L 14 12 L 14 15 L 4.484375 15 Z M 4.484375 12 " clip-rule="nonzero"/></clipPath><clipPath id="b8a4767b0a"><path d="M 19 18 L 27 18 L 27 28.40625 L 19 28.40625 Z M 19 18 " clip-rule="nonzero"/></clipPath><clipPath id="065754e5da"><path d="M 4.484375 15 L 15 15 L 15 23 L 4.484375 23 Z M 4.484375 15 " clip-rule="nonzero"/></clipPath><clipPath id="7c467faf8d"><path d="M 15 18 L 19 18 L 19 28.40625 L 15 28.40625 Z M 15 18 " clip-rule="nonzero"/></clipPath><clipPath id="5c4b34522e"><path d="M 98 6 L 107.472656 6 L 107.472656 16 L 98 16 Z M 98 6 " clip-rule="nonzero"/></clipPath></defs><g clip-path="url(#2745251dc5)"><path fill="#ffffff" d="M 19.519531 5.585938 L 20.21875 1.027344 C 19.527344 0.921875 18.820312 0.863281 18.113281 0.863281 L 18.101562 0.863281 L 18.101562 10.160156 L 18.113281 10.160156 C 18.5 10.160156 18.882812 10.210938 19.253906 10.3125 L 20.441406 5.78125 C 20.140625 5.699219 19.832031 5.636719 19.519531 5.585938 Z M 19.519531 5.585938 " fill-opacity="1" fill-rule="evenodd"/></g><path fill="#ffffff" d="M 15.894531 10.761719 L 13.605469 6.777344 C 13.335938 6.933594 13.074219 7.105469 12.820312 7.292969 L 10.085938 3.507812 C 10.660156 3.082031 11.273438 2.699219 11.90625 2.375 L 13.988281 6.476562 C 14.410156 6.257812 14.847656 6.074219 15.300781 5.925781 L 13.882812 1.542969 C 14.558594 1.320312 15.257812 1.148438 15.960938 1.035156 L 16.691406 5.664062 C 16.382812 5.714844 16.074219 5.78125 15.773438 5.863281 L 16.957031 10.3125 C 16.585938 10.414062 16.226562 10.566406 15.894531 10.761719 Z M 15.894531 10.761719 " fill-opacity="1" fill-rule="evenodd"/><path fill="#ffffff" d="M 10.09375 10.523438 L 5.960938 8.394531 C 5.636719 9.039062 5.363281 9.710938 5.144531 10.394531 L 9.558594 11.835938 C 9.703125 11.386719 9.882812 10.945312 10.09375 10.523438 Z M 10.09375 10.523438 " fill-opacity="1" fill-rule="evenodd"/><path fill="#ffffff" d="M 25.890625 10.078125 L 21.949219 12.390625 C 22.140625 12.730469 22.289062 13.09375 22.390625 13.46875 L 26.796875 12.269531 C 26.875 12.574219 26.945312 12.882812 26.992188 13.195312 L 31.570312 12.457031 C 31.460938 11.742188 31.289062 11.039062 31.070312 10.351562 L 26.730469 11.785156 C 26.585938 11.332031 26.402344 10.886719 26.1875 10.460938 L 30.246094 8.355469 C 29.921875 7.71875 29.546875 7.101562 29.125 6.519531 L 25.378906 9.285156 C 25.566406 9.539062 25.734375 9.804688 25.890625 10.078125 Z M 25.890625 10.078125 " fill-opacity="1" fill-rule="evenodd"/><path fill="#ffffff" d="M 24.28125 2.355469 C 23.644531 2.027344 22.980469 1.75 22.304688 1.527344 L 20.878906 5.988281 C 21.324219 6.132812 21.761719 6.316406 22.179688 6.53125 L 24.28125 2.351562 Z M 24.28125 2.355469 " fill-opacity="1" fill-rule="evenodd"/><path fill="#ffffff" d="M 22.636719 6.691406 L 20.320312 10.753906 C 20.65625 10.949219 20.964844 11.1875 21.238281 11.464844 L 27.734375 4.882812 C 27.230469 4.375 26.683594 3.902344 26.109375 3.480469 L 23.429688 7.214844 C 23.175781 7.027344 22.910156 6.855469 22.636719 6.691406 Z M 22.636719 6.691406 " fill-opacity="1" fill-rule="evenodd"/><path fill="#ffffff" d="M 14.273438 12.402344 L 10.257812 10.0625 C 10.414062 9.785156 10.585938 9.519531 10.773438 9.261719 L 7.078125 6.550781 C 7.496094 5.972656 7.964844 5.417969 8.464844 4.910156 L 14.980469 11.472656 C 14.707031 11.75 14.46875 12.066406 14.277344 12.402344 Z M 14.273438 12.402344 " fill-opacity="1" fill-rule="evenodd"/><g clip-path="url(#06dc11bb17)"><path fill="#ffffff" d="M 9.351562 12.277344 L 13.832031 13.480469 C 13.734375 13.855469 13.683594 14.242188 13.683594 14.636719 L 4.484375 14.636719 C 4.484375 13.921875 4.539062 13.203125 4.648438 12.5 L 9.15625 13.210938 C 9.207031 12.894531 9.269531 12.585938 9.351562 12.277344 Z M 9.351562 12.277344 " fill-opacity="1" fill-rule="evenodd"/></g><path fill="#ffffff" d="M 26.132812 18.75 L 30.265625 20.875 C 30.589844 20.234375 30.867188 19.558594 31.085938 18.875 L 26.671875 17.433594 C 26.527344 17.882812 26.34375 18.328125 26.132812 18.75 Z M 26.132812 18.75 " fill-opacity="1" fill-rule="evenodd"/><g clip-path="url(#b8a4767b0a)"><path fill="#ffffff" d="M 20.332031 18.511719 L 22.621094 22.496094 C 22.890625 22.335938 23.152344 22.164062 23.40625 21.980469 L 26.140625 25.765625 C 25.566406 26.1875 24.953125 26.570312 24.320312 26.898438 L 22.238281 22.792969 C 21.816406 23.011719 21.378906 23.195312 20.929688 23.34375 L 22.34375 27.730469 C 21.667969 27.949219 20.96875 28.121094 20.265625 28.234375 L 19.535156 23.605469 C 19.84375 23.558594 20.148438 23.488281 20.453125 23.410156 L 19.269531 18.957031 C 19.640625 18.855469 19.996094 18.707031 20.332031 18.511719 Z M 20.332031 18.511719 " fill-opacity="1" fill-rule="evenodd"/></g><g clip-path="url(#065754e5da)"><path fill="#ffffff" d="M 10.335938 19.195312 L 14.277344 16.878906 C 14.085938 16.542969 13.9375 16.179688 13.835938 15.804688 L 9.433594 17.003906 C 9.351562 16.699219 9.285156 16.390625 9.234375 16.078125 L 4.65625 16.816406 C 4.769531 17.527344 4.9375 18.234375 5.15625 18.917969 L 9.496094 17.484375 C 9.640625 17.941406 9.824219 18.382812 10.042969 18.808594 L 5.980469 20.914062 C 6.304688 21.554688 6.683594 22.171875 7.101562 22.753906 L 10.847656 19.988281 C 10.664062 19.730469 10.492188 19.464844 10.335938 19.195312 Z M 10.335938 19.195312 " fill-opacity="1" fill-rule="evenodd"/></g><path fill="#ffffff" d="M 11.945312 26.917969 C 12.582031 27.246094 13.246094 27.523438 13.925781 27.746094 L 15.347656 23.285156 C 14.902344 23.140625 14.464844 22.957031 14.046875 22.742188 Z M 11.945312 26.917969 " fill-opacity="1" fill-rule="evenodd"/><path fill="#ffffff" d="M 13.589844 22.578125 L 15.90625 18.519531 C 15.570312 18.324219 15.261719 18.085938 14.988281 17.804688 L 8.492188 24.390625 C 8.996094 24.898438 9.542969 25.367188 10.117188 25.792969 L 12.796875 22.058594 C 13.050781 22.246094 13.316406 22.417969 13.589844 22.578125 Z M 13.589844 22.578125 " fill-opacity="1" fill-rule="evenodd"/><path fill="#ffffff" d="M 21.953125 16.867188 L 25.972656 19.210938 C 25.8125 19.484375 25.640625 19.753906 25.457031 20.011719 L 29.148438 22.71875 C 28.730469 23.300781 28.265625 23.855469 27.761719 24.363281 L 21.246094 17.796875 C 21.523438 17.519531 21.757812 17.207031 21.953125 16.867188 Z M 21.953125 16.867188 " fill-opacity="1" fill-rule="evenodd"/><g clip-path="url(#7c467faf8d)"><path fill="#ffffff" d="M 16.972656 18.960938 L 15.785156 23.492188 C 16.085938 23.574219 16.398438 23.636719 16.707031 23.6875 L 16.007812 28.242188 C 16.699219 28.351562 17.410156 28.40625 18.113281 28.40625 L 18.125 28.40625 L 18.125 19.109375 L 18.113281 19.109375 C 17.726562 19.109375 17.34375 19.058594 16.972656 18.960938 Z M 16.972656 18.960938 " fill-opacity="1" fill-rule="evenodd"/></g><path fill="#ffffff" d="M 22.394531 15.789062 C 22.492188 15.414062 22.542969 15.027344 22.542969 14.636719 L 31.746094 14.636719 C 31.746094 15.351562 31.691406 16.070312 31.582031 16.769531 L 27.070312 16.058594 C 27.023438 16.375 26.957031 16.6875 26.875 16.996094 Z M 22.394531 15.789062 " fill-opacity="1" fill-rule="evenodd"/><path fill="#ffffff" d="M 38.90625 6.382812 L 42.519531 6.382812 L 46.320312 15.070312 L 44.28125 15.070312 L 41.304688 8.265625 L 40.769531 8.265625 L 40.769531 15.070312 L 38.90625 15.070312 Z M 38.90625 6.382812 " fill-opacity="1" fill-rule="evenodd"/><path fill="#ffffff" d="M 76.902344 6.382812 L 75.039062 6.382812 L 75.039062 15.070312 L 76.902344 15.070312 Z M 76.902344 6.382812 " fill-opacity="1" fill-rule="nonzero"/><path fill="#ffffff" d="M 75.039062 15.070312 L 73.003906 15.070312 L 70.027344 8.265625 L 68.800781 8.265625 L 68.800781 15.070312 L 66.9375 15.070312 L 66.9375 6.382812 L 71.242188 6.382812 Z M 75.039062 15.070312 " fill-opacity="1" fill-rule="evenodd"/><path fill="#ffffff" d="M 50.117188 6.382812 L 46.320312 15.070312 L 48.355469 15.070312 L 51.332031 8.265625 L 51.867188 8.265625 L 51.867188 15.070312 L 53.730469 15.070312 L 53.730469 6.382812 Z M 50.117188 6.382812 " fill-opacity="1" fill-rule="evenodd"/><path fill="#ffffff" d="M 62.0625 6.382812 L 58.652344 6.382812 L 54.855469 15.070312 L 56.890625 15.070312 L 58.128906 12.238281 L 62.585938 12.238281 L 63.824219 15.070312 L 65.859375 15.070312 Z M 58.953125 10.355469 L 59.867188 8.265625 L 60.847656 8.265625 L 61.761719 10.355469 Z M 58.953125 10.355469 " fill-opacity="1" fill-rule="nonzero"/><path fill="#ffffff" d="M 77.9375 8.265625 L 77.9375 6.382812 L 88.496094 6.382812 L 88.496094 8.265625 L 84.148438 8.265625 L 84.148438 15.070312 L 82.285156 15.070312 L 82.285156 8.265625 Z M 77.9375 8.265625 " fill-opacity="1" fill-rule="evenodd"/><path fill="#ffffff" d="M 91.394531 6.382812 L 89.53125 6.382812 L 89.53125 15.070312 L 97.640625 15.070312 L 97.640625 13.1875 L 91.394531 13.1875 Z M 91.394531 6.382812 " fill-opacity="1" fill-rule="evenodd"/><g clip-path="url(#5c4b34522e)"><path fill="#ffffff" d="M 107.472656 6.382812 L 107.472656 8.265625 L 100.539062 8.265625 L 100.539062 9.660156 L 106.550781 9.660156 L 106.550781 11.539062 L 100.539062 11.539062 L 100.539062 13.1875 L 107.472656 13.1875 L 107.472656 15.070312 L 98.675781 15.070312 L 98.675781 6.382812 Z M 107.472656 6.382812 " fill-opacity="1" fill-rule="evenodd"/></g><path fill="#ffffff" d="M 38.769531 22.761719 L 38.769531 17.207031 L 40.074219 17.207031 L 41.984375 20.800781 L 41.984375 17.207031 L 43.199219 17.207031 L 43.199219 22.761719 L 41.898438 22.761719 L 39.988281 19.167969 L 39.988281 22.761719 Z M 38.769531 22.761719 " fill-opacity="1" fill-rule="nonzero"/><path fill="#ffffff" d="M 44.269531 22.761719 L 44.269531 17.207031 L 47.632812 17.207031 L 47.632812 18.238281 L 45.542969 18.238281 L 45.542969 19.5 L 47.632812 19.5 L 47.632812 20.507812 L 45.542969 20.507812 L 45.542969 21.730469 L 47.632812 21.730469 L 47.632812 22.765625 L 44.269531 22.765625 Z M 44.269531 22.761719 " fill-opacity="1" fill-rule="nonzero"/><path fill="#ffffff" d="M 49.59375 22.761719 L 49.59375 18.347656 L 48.085938 18.347656 L 48.085938 17.207031 L 52.375 17.207031 L 52.375 18.347656 L 50.859375 18.347656 L 50.859375 22.761719 Z M 49.59375 22.761719 " fill-opacity="1" fill-rule="nonzero"/><path fill="#ffffff" d="M 54.640625 22.761719 L 52.703125 17.207031 L 54.039062 17.207031 L 55.183594 20.898438 L 56.277344 17.207031 L 57.265625 17.207031 L 58.355469 20.898438 L 59.503906 17.207031 L 60.839844 17.207031 L 58.898438 22.761719 L 57.863281 22.761719 L 56.769531 19.269531 L 55.679688 22.761719 Z M 54.640625 22.761719 " fill-opacity="1" fill-rule="nonzero"/><path fill="#ffffff" d="M 65.660156 22.066406 C 65.128906 22.636719 64.414062 22.921875 63.523438 22.921875 C 62.632812 22.921875 61.921875 22.636719 61.386719 22.066406 C 60.851562 21.5 60.585938 20.804688 60.585938 19.984375 C 60.585938 19.164062 60.851562 18.46875 61.386719 17.898438 C 61.921875 17.332031 62.632812 17.046875 63.523438 17.046875 C 64.414062 17.046875 65.125 17.332031 65.660156 17.898438 C 66.195312 18.46875 66.460938 19.164062 66.460938 19.984375 C 66.460938 20.804688 66.195312 21.5 65.660156 22.066406 Z M 63.523438 21.769531 C 64.027344 21.769531 64.421875 21.597656 64.707031 21.257812 C 64.992188 20.917969 65.132812 20.492188 65.132812 19.984375 C 65.132812 19.476562 64.992188 19.050781 64.707031 18.710938 C 64.421875 18.367188 64.027344 18.199219 63.523438 18.199219 C 63.019531 18.199219 62.617188 18.367188 62.332031 18.710938 C 62.046875 19.050781 61.90625 19.476562 61.914062 19.984375 C 61.90625 20.492188 62.046875 20.917969 62.332031 21.257812 C 62.617188 21.597656 63.015625 21.769531 63.523438 21.769531 Z M 63.523438 21.769531 " fill-opacity="1" fill-rule="nonzero"/><path fill="#ffffff" d="M 71.511719 19.214844 C 71.511719 19.613281 71.421875 19.972656 71.238281 20.289062 C 71.054688 20.605469 70.804688 20.839844 70.484375 21 L 71.449219 22.761719 L 70.003906 22.761719 L 69.140625 21.222656 L 68.472656 21.222656 L 68.472656 22.761719 L 67.199219 22.761719 L 67.199219 17.203125 L 69.539062 17.203125 C 70.113281 17.203125 70.582031 17.394531 70.953125 17.773438 C 71.328125 18.152344 71.511719 18.628906 71.511719 19.214844 Z M 68.472656 18.253906 L 68.472656 20.171875 L 69.34375 20.171875 C 69.601562 20.171875 69.8125 20.082031 69.976562 19.902344 C 70.144531 19.722656 70.226562 19.492188 70.226562 19.210938 C 70.226562 18.929688 70.144531 18.703125 69.976562 18.519531 C 69.8125 18.339844 69.601562 18.25 69.34375 18.25 L 68.472656 18.25 Z M 68.472656 18.253906 " fill-opacity="1" fill-rule="nonzero"/><path fill="#ffffff" d="M 76.902344 17.203125 L 74.742188 19.960938 L 76.902344 22.761719 L 75.386719 22.761719 L 73.578125 20.308594 L 73.578125 22.761719 L 72.304688 22.761719 L 72.304688 17.207031 L 73.578125 17.207031 L 73.578125 19.675781 L 75.394531 17.207031 L 76.902344 17.207031 Z M 76.902344 17.203125 " fill-opacity="1" fill-rule="nonzero"/></svg>