<svg xmlns="http://www.w3.org/2000/svg" xmlns:xlink="http://www.w3.org/1999/xlink" width="150" zoomAndPan="magnify" viewBox="0 0 112.5 30.000001" height="40" preserveAspectRatio="xMidYMid meet" version="1.0"><defs><clipPath id="adc22c4d0b"><path d="M 73 5.609375 L 77 5.609375 L 77 10 L 73 10 Z M 73 5.609375 " clip-rule="nonzero"/></clipPath><clipPath id="c4f55b1410"><path d="M 73 5.609375 L 77 5.609375 L 77 23.753906 L 73 23.753906 Z M 73 5.609375 " clip-rule="nonzero"/></clipPath><clipPath id="936dc9fdbf"><path d="M 73 5.609375 L 109.769531 5.609375 L 109.769531 23.753906 L 73 23.753906 Z M 73 5.609375 " clip-rule="nonzero"/></clipPath><clipPath id="bc41706266"><path d="M 106 5.609375 L 109.769531 5.609375 L 109.769531 23.753906 L 106 23.753906 Z M 106 5.609375 " clip-rule="nonzero"/></clipPath><clipPath id="f44230280a"><path d="M 106 20 L 109.769531 20 L 109.769531 23.753906 L 106 23.753906 Z M 106 20 " clip-rule="nonzero"/></clipPath><clipPath id="e8b5bdc126"><path d="M 2.199219 5.609375 L 16 5.609375 L 16 23.753906 L 2.199219 23.753906 Z M 2.199219 5.609375 " clip-rule="nonzero"/></clipPath><clipPath id="be989978c1"><path d="M 2.199219 5.609375 L 31 5.609375 L 31 23.753906 L 2.199219 23.753906 Z M 2.199219 5.609375 " clip-rule="nonzero"/></clipPath><clipPath id="46bf572ceb"><path d="M 16 5.609375 L 36 5.609375 L 36 23.753906 L 16 23.753906 Z M 16 5.609375 " clip-rule="nonzero"/></clipPath><clipPath id="f4b51d7d24"><path d="M 31 5.609375 L 52 5.609375 L 52 23.753906 L 31 23.753906 Z M 31 5.609375 " clip-rule="nonzero"/></clipPath><clipPath id="000c288f8a"><path d="M 36 5.609375 L 52 5.609375 L 52 23.753906 L 36 23.753906 Z M 36 5.609375 " clip-rule="nonzero"/></clipPath><clipPath id="f109a5fccd"><path d="M 52 5.609375 L 73 5.609375 L 73 23.753906 L 52 23.753906 Z M 52 5.609375 " clip-rule="nonzero"/></clipPath><clipPath id="5462d5e772"><path d="M 52 5.609375 L 107 5.609375 L 107 23.753906 L 52 23.753906 Z M 52 5.609375 " clip-rule="nonzero"/></clipPath><clipPath id="334db5a5b5"><path d="M 76 5.609375 L 107 5.609375 L 107 23.753906 L 76 23.753906 Z M 76 5.609375 " clip-rule="nonzero"/></clipPath><clipPath id="01d4d698ba"><path d="M 76 5.609375 L 92 5.609375 L 92 23.753906 L 76 23.753906 Z M 76 5.609375 " clip-rule="nonzero"/></clipPath></defs><g clip-path="url(#adc22c4d0b)"><path fill="#ffffff" d="M 76.679688 5.671875 L 76.679688 6.878906 L 75.558594 6.878906 L 75.558594 8.066406 L 74.449219 8.066406 L 74.449219 9.230469 L 73.308594 9.230469 L 73.308594 5.671875 Z M 76.679688 5.671875 " fill-opacity="1" fill-rule="evenodd"/></g><g clip-path="url(#c4f55b1410)"><path fill="#ffffff" d="M 76.679688 5.671875 L 76.679688 6.878906 L 75.558594 6.878906 L 75.558594 8.066406 L 74.449219 8.066406 L 74.449219 9.230469 L 73.308594 9.230469 L 73.308594 5.671875 Z M 76.679688 23.757812 L 76.679688 22.554688 L 75.558594 22.554688 L 75.558594 21.363281 L 74.449219 21.363281 L 74.449219 20.203125 L 73.308594 20.203125 L 73.308594 23.757812 Z M 76.679688 23.757812 " fill-opacity="1" fill-rule="evenodd"/></g><g clip-path="url(#936dc9fdbf)"><path fill="#ffffff" d="M 76.679688 23.757812 L 76.679688 22.554688 L 75.558594 22.554688 L 75.558594 21.363281 L 74.449219 21.363281 L 74.449219 20.203125 L 73.308594 20.203125 L 73.308594 23.757812 Z M 106.355469 5.640625 L 106.355469 6.84375 L 107.476562 6.84375 L 107.476562 8.035156 L 108.589844 8.035156 L 108.589844 9.195312 L 109.730469 9.195312 L 109.730469 5.636719 L 106.355469 5.636719 Z M 106.355469 5.640625 " fill-opacity="1" fill-rule="evenodd"/></g><g clip-path="url(#bc41706266)"><path fill="#ffffff" d="M 106.355469 5.640625 L 106.355469 6.84375 L 107.476562 6.84375 L 107.476562 8.035156 L 108.589844 8.035156 L 108.589844 9.195312 L 109.730469 9.195312 L 109.730469 5.636719 L 106.355469 5.636719 Z M 106.355469 23.722656 L 106.355469 22.519531 L 107.476562 22.519531 L 107.476562 21.328125 L 108.589844 21.328125 L 108.589844 20.167969 L 109.730469 20.167969 L 109.730469 23.722656 Z M 106.355469 23.722656 " fill-opacity="1" fill-rule="evenodd"/></g><g clip-path="url(#f44230280a)"><path fill="#ffffff" d="M 106.355469 23.722656 L 106.355469 22.519531 L 107.476562 22.519531 L 107.476562 21.328125 L 108.589844 21.328125 L 108.589844 20.167969 L 109.730469 20.167969 L 109.730469 23.722656 Z M 106.355469 23.722656 " fill-opacity="1" fill-rule="evenodd"/></g><g clip-path="url(#e8b5bdc126)"><path fill="#ffffff" d="M 15.460938 23.765625 L 15.460938 19.746094 L 6.570312 19.746094 L 6.191406 19.363281 L 6.191406 17.074219 L 6.640625 16.617188 L 13.152344 16.617188 L 13.152344 12.652344 L 6.550781 12.652344 L 6.195312 12.289062 L 6.195312 10 L 6.492188 9.695312 L 15.210938 9.695312 L 15.210938 5.675781 L 1.488281 5.675781 L 1.488281 23.765625 Z M 15.460938 23.765625 " fill-opacity="1" fill-rule="nonzero"/></g><g clip-path="url(#be989978c1)"><path fill="#ffffff" d="M 15.460938 23.765625 L 15.460938 19.746094 L 6.570312 19.746094 L 6.191406 19.363281 L 6.191406 17.074219 L 6.640625 16.617188 L 13.152344 16.617188 L 13.152344 12.652344 L 6.550781 12.652344 L 6.195312 12.289062 L 6.195312 10 L 6.492188 9.695312 L 15.210938 9.695312 L 15.210938 5.675781 L 1.488281 5.675781 L 1.488281 23.765625 Z M 16.558594 5.691406 L 21.347656 5.691406 L 21.347656 19.363281 L 21.742188 19.765625 L 30.140625 19.765625 L 30.140625 23.785156 L 16.558594 23.785156 Z M 16.558594 5.691406 " fill-opacity="1" fill-rule="nonzero"/></g><g clip-path="url(#46bf572ceb)"><path fill="#ffffff" d="M 16.558594 5.691406 L 21.347656 5.691406 L 21.347656 19.363281 L 21.742188 19.765625 L 30.140625 19.765625 L 30.140625 23.785156 L 16.558594 23.785156 Z M 35.910156 5.691406 L 31.121094 5.691406 L 31.121094 23.785156 L 35.910156 23.785156 Z M 35.910156 5.691406 " fill-opacity="1" fill-rule="nonzero"/></g><g clip-path="url(#f4b51d7d24)"><path fill="#ffffff" d="M 35.910156 5.691406 L 31.121094 5.691406 L 31.121094 23.785156 L 35.910156 23.785156 Z M 43.4375 19.765625 L 43.4375 19.234375 L 51.777344 9.484375 L 51.777344 5.691406 L 37.039062 5.691406 L 37.039062 9.714844 L 45.28125 9.714844 L 45.28125 10.199219 L 36.953125 20.078125 L 36.953125 23.785156 L 52 23.785156 L 52 19.761719 L 43.4375 19.761719 Z M 43.4375 19.765625 " fill-opacity="1" fill-rule="nonzero"/></g><g clip-path="url(#000c288f8a)"><path fill="#ffffff" d="M 43.4375 19.765625 L 43.4375 19.234375 L 51.777344 9.484375 L 51.777344 5.691406 L 37.039062 5.691406 L 37.039062 9.714844 L 45.28125 9.714844 L 45.28125 10.199219 L 36.953125 20.078125 L 36.953125 23.785156 L 52 23.785156 L 52 19.761719 L 43.4375 19.761719 Z M 43.4375 19.765625 " fill-opacity="1" fill-rule="nonzero"/></g><g clip-path="url(#f109a5fccd)"><path fill="#ffffff" d="M 59.664062 5.691406 L 65.015625 5.691406 L 72.089844 23.785156 L 66.988281 23.785156 L 65.78125 20.585938 L 65.414062 20.28125 L 59.019531 20.28125 L 58.609375 20.609375 L 57.410156 23.785156 L 52.589844 23.785156 Z M 61.996094 11.292969 L 60.246094 16.257812 L 60.617188 16.632812 L 63.824219 16.632812 L 64.164062 16.285156 L 62.40625 11.292969 Z M 61.996094 11.292969 " fill-opacity="1" fill-rule="evenodd"/></g><g clip-path="url(#5462d5e772)"><path fill="#ffffff" d="M 59.664062 5.691406 L 65.015625 5.691406 L 72.089844 23.785156 L 66.988281 23.785156 L 65.78125 20.585938 L 65.414062 20.28125 L 59.019531 20.28125 L 58.609375 20.609375 L 57.410156 23.785156 L 52.589844 23.785156 Z M 61.996094 11.292969 L 60.246094 16.257812 L 60.617188 16.632812 L 63.824219 16.632812 L 64.164062 16.285156 L 62.40625 11.292969 Z M 104.117188 23.757812 L 94.804688 23.757812 L 94.804688 22.574219 L 93.679688 22.574219 L 93.679688 21.390625 L 92.554688 21.390625 L 92.554688 17.519531 L 96.230469 17.519531 L 96.230469 19.011719 L 97.355469 19.011719 L 97.355469 20.195312 L 101.570312 20.195312 L 101.570312 19.011719 L 102.691406 19.011719 L 102.691406 17.835938 L 101.570312 17.835938 L 101.570312 16.652344 L 95.929688 16.652344 L 95.929688 15.464844 L 93.679688 15.464844 L 93.679688 14.28125 L 92.554688 14.28125 L 92.554688 8.046875 L 93.679688 8.046875 L 93.679688 6.863281 L 94.804688 6.863281 L 94.804688 5.671875 L 104.117188 5.671875 L 104.117188 6.863281 L 105.242188 6.863281 L 105.242188 8.046875 L 106.375 8.046875 L 106.375 11.917969 L 102.695312 11.917969 L 102.695312 10.726562 L 101.570312 10.726562 L 101.570312 9.242188 L 97.355469 9.242188 L 97.355469 10.425781 L 96.230469 10.425781 L 96.230469 11.601562 L 97.355469 11.601562 L 97.355469 12.785156 L 102.996094 12.785156 L 102.996094 13.96875 L 105.246094 13.96875 L 105.246094 15.160156 L 106.378906 15.160156 L 106.378906 21.394531 L 105.246094 21.394531 L 105.246094 22.578125 L 104.121094 22.578125 L 104.121094 23.761719 Z M 104.117188 23.757812 " fill-opacity="1" fill-rule="evenodd"/></g><g clip-path="url(#334db5a5b5)"><path fill="#ffffff" d="M 104.117188 23.757812 L 94.804688 23.757812 L 94.804688 22.574219 L 93.679688 22.574219 L 93.679688 21.390625 L 92.554688 21.390625 L 92.554688 17.519531 L 96.230469 17.519531 L 96.230469 19.011719 L 97.355469 19.011719 L 97.355469 20.195312 L 101.570312 20.195312 L 101.570312 19.011719 L 102.691406 19.011719 L 102.691406 17.835938 L 101.570312 17.835938 L 101.570312 16.652344 L 95.929688 16.652344 L 95.929688 15.464844 L 93.679688 15.464844 L 93.679688 14.28125 L 92.554688 14.28125 L 92.554688 8.046875 L 93.679688 8.046875 L 93.679688 6.863281 L 94.804688 6.863281 L 94.804688 5.671875 L 104.117188 5.671875 L 104.117188 6.863281 L 105.242188 6.863281 L 105.242188 8.046875 L 106.375 8.046875 L 106.375 11.917969 L 102.695312 11.917969 L 102.695312 10.726562 L 101.570312 10.726562 L 101.570312 9.242188 L 97.355469 9.242188 L 97.355469 10.425781 L 96.230469 10.425781 L 96.230469 11.601562 L 97.355469 11.601562 L 97.355469 12.785156 L 102.996094 12.785156 L 102.996094 13.96875 L 105.246094 13.96875 L 105.246094 15.160156 L 106.378906 15.160156 L 106.378906 21.394531 L 105.246094 21.394531 L 105.246094 22.578125 L 104.121094 22.578125 L 104.121094 23.761719 Z M 88.148438 23.757812 L 79.957031 23.757812 L 79.957031 22.574219 L 78.832031 22.574219 L 78.832031 21.390625 L 77.707031 21.390625 L 77.707031 20.210938 L 76.582031 20.210938 L 76.582031 9.230469 L 77.707031 9.230469 L 77.707031 8.046875 L 78.832031 8.046875 L 78.832031 6.863281 L 79.957031 6.863281 L 79.957031 5.671875 L 88.148438 5.671875 L 88.148438 6.863281 L 89.273438 6.863281 L 89.273438 8.046875 L 90.40625 8.046875 L 90.40625 9.230469 L 91.53125 9.230469 L 91.53125 20.210938 L 90.40625 20.210938 L 90.40625 21.394531 L 89.273438 21.394531 L 89.273438 22.578125 L 88.148438 22.578125 L 88.148438 23.761719 Z M 85.597656 18.710938 L 86.71875 18.710938 L 86.71875 17.523438 L 87.84375 17.523438 L 87.84375 11.917969 L 86.71875 11.917969 L 86.71875 10.726562 L 85.597656 10.726562 L 85.597656 9.546875 L 82.515625 9.546875 L 82.515625 10.726562 L 81.382812 10.726562 L 81.382812 11.917969 L 80.253906 11.917969 L 80.253906 17.523438 L 81.382812 17.523438 L 81.382812 18.714844 L 82.515625 18.714844 L 82.515625 19.894531 L 85.597656 19.894531 Z M 85.597656 18.710938 " fill-opacity="1" fill-rule="evenodd"/></g><g clip-path="url(#01d4d698ba)"><path fill="#ffffff" d="M 88.148438 23.757812 L 79.957031 23.757812 L 79.957031 22.574219 L 78.832031 22.574219 L 78.832031 21.390625 L 77.707031 21.390625 L 77.707031 20.210938 L 76.582031 20.210938 L 76.582031 9.230469 L 77.707031 9.230469 L 77.707031 8.046875 L 78.832031 8.046875 L 78.832031 6.863281 L 79.957031 6.863281 L 79.957031 5.671875 L 88.148438 5.671875 L 88.148438 6.863281 L 89.273438 6.863281 L 89.273438 8.046875 L 90.40625 8.046875 L 90.40625 9.230469 L 91.53125 9.230469 L 91.53125 20.210938 L 90.40625 20.210938 L 90.40625 21.394531 L 89.273438 21.394531 L 89.273438 22.578125 L 88.148438 22.578125 L 88.148438 23.761719 Z M 85.597656 18.710938 L 86.71875 18.710938 L 86.71875 17.523438 L 87.84375 17.523438 L 87.84375 11.917969 L 86.71875 11.917969 L 86.71875 10.726562 L 85.597656 10.726562 L 85.597656 9.546875 L 82.515625 9.546875 L 82.515625 10.726562 L 81.382812 10.726562 L 81.382812 11.917969 L 80.253906 11.917969 L 80.253906 17.523438 L 81.382812 17.523438 L 81.382812 18.714844 L 82.515625 18.714844 L 82.515625 19.894531 L 85.597656 19.894531 Z M 85.597656 18.710938 " fill-opacity="1" fill-rule="evenodd"/></g></svg>