<svg xmlns="http://www.w3.org/2000/svg" xmlns:xlink="http://www.w3.org/1999/xlink" width="150" zoomAndPan="magnify" viewBox="0 0 112.5 30.000001" height="40" preserveAspectRatio="xMidYMid meet" version="1.0"><defs><clipPath id="53f5e01dfc"><path d="M 8.210938 2.015625 L 29 2.015625 L 29 25.964844 L 8.210938 25.964844 Z M 8.210938 2.015625 " clip-rule="nonzero"/></clipPath><clipPath id="92957c9e25"><path d="M 93 10 L 104.015625 10 L 104.015625 22 L 93 22 Z M 93 10 " clip-rule="nonzero"/></clipPath></defs><g clip-path="url(#53f5e01dfc)"><path fill="#9e77ed" d="M 12.824219 5.164062 L 17.417969 2.441406 L 22.023438 5.164062 L 26.628906 7.882812 L 26.628906 13.308594 L 22.023438 16.03125 L 22.023438 10.589844 L 17.417969 7.882812 Z M 24.320312 22.820312 L 28.929688 20.109375 L 28.929688 14.671875 L 24.320312 17.390625 L 19.726562 20.109375 L 15.121094 17.390625 L 15.121094 22.820312 L 19.726562 25.539062 Z M 12.824219 18.75 L 12.824219 13.308594 L 17.417969 10.589844 L 12.824219 7.882812 L 8.214844 10.589844 L 8.214844 21.472656 L 12.824219 24.179688 Z M 12.824219 18.75 " fill-opacity="1" fill-rule="evenodd"/></g><path fill="#ffffff" d="M 36.695312 21.6875 L 36.695312 6.292969 L 39.816406 6.292969 L 39.816406 19.125 L 46.011719 19.125 L 46.011719 21.6875 Z M 36.695312 21.6875 " fill-opacity="1" fill-rule="nonzero"/><path fill="#ffffff" d="M 52.839844 21.6875 C 51.050781 21.6875 49.695312 21.199219 48.773438 20.214844 C 47.847656 19.230469 47.386719 17.894531 47.386719 16.203125 C 47.386719 15.34375 47.503906 14.570312 47.738281 13.886719 C 47.988281 13.191406 48.332031 12.433594 48.773438 11.957031 C 49.226562 11.464844 49.769531 11.097656 50.402344 10.851562 C 51.050781 10.589844 51.773438 10.460938 52.574219 10.460938 C 53.371094 10.460938 54.085938 10.589844 54.722656 10.851562 C 55.355469 11.097656 55.890625 11.453125 56.332031 11.914062 C 56.773438 12.378906 57.109375 13.117188 57.34375 13.785156 C 57.59375 14.441406 57.714844 15.179688 57.714844 15.996094 L 57.714844 16.898438 L 50.425781 16.898438 L 50.425781 17.082031 C 50.425781 17.765625 50.636719 18.316406 51.066406 18.742188 C 51.492188 19.148438 52.117188 19.355469 52.945312 19.355469 C 53.578125 19.355469 54.121094 19.238281 54.578125 19.007812 C 55.03125 18.761719 55.421875 18.441406 55.753906 18.042969 L 57.40625 19.824219 C 56.992188 20.332031 56.414062 20.769531 55.671875 21.136719 C 54.929688 21.503906 53.984375 21.6875 52.839844 21.6875 Z M 52.59375 12.804688 C 51.933594 12.804688 51.402344 13.007812 51.003906 13.417969 C 50.617188 13.8125 50.425781 14.351562 50.425781 15.035156 L 50.425781 15.199219 L 54.722656 15.199219 L 54.722656 15.035156 C 54.722656 14.339844 54.527344 13.792969 54.144531 13.398438 C 53.769531 13 53.253906 12.804688 52.59375 12.804688 Z M 52.59375 12.804688 " fill-opacity="1" fill-rule="nonzero"/><path fill="#ffffff" d="M 59.257812 21.6875 L 59.257812 10.460938 L 62.316406 10.460938 L 62.316406 12.632812 L 62.4375 12.632812 C 62.5625 12.332031 62.714844 12.050781 62.894531 11.792969 C 63.074219 11.535156 63.285156 11.308594 63.535156 11.117188 C 63.796875 10.914062 64.089844 10.753906 64.421875 10.644531 C 64.765625 10.523438 65.152344 10.460938 65.578125 10.460938 C 66.089844 10.460938 66.558594 10.550781 66.984375 10.726562 C 67.410156 10.890625 67.777344 11.144531 68.078125 11.484375 C 68.382812 11.828125 68.617188 12.242188 68.78125 12.734375 C 68.960938 13.226562 69.050781 13.964844 69.050781 14.605469 L 69.050781 21.6875 L 65.992188 21.6875 L 65.992188 15.015625 C 65.992188 13.648438 65.394531 12.96875 64.195312 12.96875 C 63.960938 12.96875 63.726562 13 63.492188 13.070312 C 63.273438 13.125 63.074219 13.21875 62.894531 13.355469 C 62.714844 13.480469 62.570312 13.636719 62.460938 13.828125 C 62.363281 14.019531 62.316406 14.242188 62.316406 14.503906 L 62.316406 21.6875 Z M 59.257812 21.6875 " fill-opacity="1" fill-rule="nonzero"/><path fill="#ffffff" d="M 77.59375 19.519531 L 77.449219 19.519531 C 77.171875 20.160156 76.789062 20.6875 76.292969 21.09375 C 75.808594 21.492188 75.140625 21.6875 74.289062 21.6875 C 73.695312 21.6875 73.152344 21.578125 72.65625 21.363281 C 72.175781 21.144531 71.753906 20.808594 71.394531 20.359375 C 71.050781 19.90625 70.777344 19.335938 70.570312 18.636719 C 70.378906 17.941406 70.28125 17.117188 70.28125 16.160156 C 70.28125 15.207031 70.378906 14.378906 70.570312 13.683594 C 70.777344 12.988281 71.050781 12.242188 71.394531 11.792969 C 71.753906 11.34375 72.175781 11.007812 72.65625 10.789062 C 73.152344 10.570312 73.695312 10.460938 74.289062 10.460938 C 74.714844 10.460938 75.09375 10.515625 75.425781 10.625 C 75.753906 10.734375 76.042969 10.886719 76.292969 11.078125 C 76.554688 11.265625 76.773438 11.5 76.953125 11.773438 C 77.144531 12.03125 77.3125 12.488281 77.449219 12.804688 L 77.59375 12.804688 L 77.59375 6.292969 L 80.652344 6.292969 L 80.652344 21.6875 L 77.59375 21.6875 Z M 75.609375 19.335938 C 76.148438 19.335938 76.609375 19.203125 76.996094 18.945312 C 77.394531 18.6875 77.59375 18.277344 77.59375 17.71875 L 77.59375 14.605469 C 77.59375 14.046875 77.394531 13.636719 76.996094 13.375 C 76.609375 13.117188 76.148438 12.988281 75.609375 12.988281 C 74.921875 12.988281 74.390625 13.199219 74.019531 13.621094 C 73.648438 14.03125 73.460938 14.605469 73.460938 15.34375 L 73.460938 16.980469 C 73.460938 17.71875 73.648438 18.296875 74.019531 18.71875 C 74.390625 19.128906 74.921875 19.335938 75.609375 19.335938 Z M 75.609375 19.335938 " fill-opacity="1" fill-rule="nonzero"/><path fill="#ffffff" d="M 82.441406 19.125 L 85.703125 19.125 L 85.703125 8.648438 L 82.441406 8.648438 L 82.441406 6.292969 L 88.761719 6.292969 L 88.761719 19.125 L 92.023438 19.125 L 92.023438 21.6875 L 82.441406 21.6875 Z M 82.441406 19.125 " fill-opacity="1" fill-rule="nonzero"/><g clip-path="url(#92957c9e25)"><path fill="#ffffff" d="M 99.136719 21.6875 C 97.347656 21.6875 95.988281 21.199219 95.066406 20.214844 C 94.144531 19.230469 93.683594 17.894531 93.683594 16.203125 C 93.683594 15.34375 93.800781 14.398438 94.035156 13.71875 C 94.28125 13.019531 94.625 12.433594 95.066406 11.957031 C 95.519531 11.464844 96.066406 11.097656 96.699219 10.851562 C 97.347656 10.589844 98.070312 10.460938 98.867188 10.460938 C 99.664062 10.460938 100.382812 10.589844 101.015625 10.851562 C 101.648438 11.097656 102.1875 11.453125 102.628906 11.914062 C 103.066406 12.378906 103.40625 12.945312 103.640625 13.613281 C 103.886719 14.269531 104.011719 15.179688 104.011719 15.996094 L 104.011719 16.898438 L 96.71875 16.898438 L 96.71875 17.082031 C 96.71875 17.765625 96.933594 18.316406 97.359375 18.742188 C 97.785156 19.148438 98.414062 19.355469 99.238281 19.355469 C 99.875 19.355469 100.417969 19.238281 100.871094 19.007812 C 101.324219 18.761719 101.71875 18.441406 102.046875 18.042969 L 103.703125 19.824219 C 103.289062 20.332031 102.710938 20.769531 101.964844 21.136719 C 101.222656 21.503906 100.28125 21.6875 99.136719 21.6875 Z M 98.886719 12.707031 C 98.226562 12.707031 97.695312 12.835938 97.296875 13.246094 C 96.910156 13.640625 96.71875 14.351562 96.71875 15.035156 L 96.71875 15.199219 L 101.015625 15.199219 L 101.015625 15.035156 C 101.015625 14.339844 100.824219 13.621094 100.4375 13.226562 C 100.066406 12.832031 99.550781 12.707031 98.886719 12.707031 Z M 98.886719 12.707031 " fill-opacity="1" fill-rule="nonzero"/></g></svg>