<svg xmlns="http://www.w3.org/2000/svg" xmlns:xlink="http://www.w3.org/1999/xlink" width="150" zoomAndPan="magnify" viewBox="0 0 112.5 30.000001" height="40" preserveAspectRatio="xMidYMid meet" version="1.0"><defs><clipPath id="32f9c60eed"><path d="M 61.449219 7.402344 L 69 7.402344 L 69 19.53125 L 61.449219 19.53125 Z M 61.449219 7.402344 " clip-rule="nonzero"/></clipPath><clipPath id="97afd13c1e"><path d="M 69 7.402344 L 80 7.402344 L 80 19.53125 L 69 19.53125 Z M 69 7.402344 " clip-rule="nonzero"/></clipPath><clipPath id="cb78de235c"><path d="M 80 7.402344 L 90.175781 7.402344 L 90.175781 19.53125 L 80 19.53125 Z M 80 7.402344 " clip-rule="nonzero"/></clipPath></defs><path fill="#ff596e" d="M 26.460938 11.605469 L 31.996094 9.027344 L 31.996094 1.984375 Z M 26.460938 11.605469 " fill-opacity="1" fill-rule="nonzero"/><path fill="#ff596e" d="M 31.996094 9.027344 L 31.996094 14.644531 L 37.53125 11.605469 Z M 31.996094 9.027344 " fill-opacity="1" fill-rule="nonzero"/><path fill="#800010" d="M 31.996094 9.027344 L 31.996094 14.644531 L 26.464844 11.605469 Z M 31.996094 9.027344 " fill-opacity="1" fill-rule="nonzero"/><path fill="#800010" d="M 37.53125 11.605469 L 31.996094 9.027344 L 31.996094 1.984375 Z M 37.53125 11.605469 " fill-opacity="1" fill-rule="nonzero"/><path fill="#ff596e" d="M 31.996094 16.808594 L 31.996094 22.792969 L 26.355469 13.714844 Z M 31.996094 16.808594 " fill-opacity="1" fill-rule="nonzero"/><path fill="#800010" d="M 31.996094 16.808594 L 31.996094 22.792969 L 37.640625 13.714844 Z M 31.996094 16.808594 " fill-opacity="1" fill-rule="nonzero"/><path fill="#800010" d="M 38.570312 15.085938 L 39.847656 18.6875 L 42.648438 13.992188 Z M 38.570312 15.085938 " fill-opacity="1" fill-rule="nonzero"/><path fill="#ff596e" d="M 39.847656 18.6875 L 42.648438 17.855469 L 42.648438 13.992188 Z M 39.847656 18.6875 " fill-opacity="1" fill-rule="nonzero"/><path fill="#800010" d="M 42.648438 17.855469 L 38.570312 24.691406 L 35.472656 26.023438 L 39.847656 18.6875 Z M 42.648438 17.855469 " fill-opacity="1" fill-rule="nonzero"/><path fill="#ff596e" d="M 21.347656 17.855469 L 25.425781 24.691406 L 28.523438 26.023438 L 24.148438 18.6875 Z M 21.347656 17.855469 " fill-opacity="1" fill-rule="nonzero"/><path fill="#800010" d="M 31.996094 26.023438 L 25.425781 15.085938 L 24.148438 18.6875 L 28.523438 26.023438 Z M 31.996094 26.023438 " fill-opacity="1" fill-rule="nonzero"/><path fill="#ff596e" d="M 25.425781 15.085938 L 24.148438 18.6875 L 21.347656 13.992188 Z M 25.425781 15.085938 " fill-opacity="1" fill-rule="nonzero"/><path fill="#800010" d="M 24.148438 18.6875 L 21.347656 17.855469 L 21.347656 13.992188 Z M 24.148438 18.6875 " fill-opacity="1" fill-rule="nonzero"/><path fill="#ff596e" d="M 31.996094 26.023438 L 38.570312 15.085938 L 39.847656 18.6875 L 35.472656 26.023438 Z M 31.996094 26.023438 " fill-opacity="1" fill-rule="nonzero"/><path fill="#ffffff" d="M 48.855469 13.210938 L 48.855469 19.527344 L 50.75 19.527344 L 50.75 15.585938 L 52.484375 19.527344 L 54.554688 19.527344 L 51.773438 13.210938 Z M 48.855469 13.210938 " fill-opacity="1" fill-rule="nonzero"/><path fill="#ffffff" d="M 57.242188 13.210938 L 54.464844 19.527344 L 56.535156 19.527344 L 58.269531 15.585938 L 58.269531 19.527344 L 60.160156 19.527344 L 60.160156 13.210938 Z M 57.242188 13.210938 " fill-opacity="1" fill-rule="nonzero"/><path fill="#ffffff" d="M 50.457031 21.699219 C 50.894531 21.699219 51.253906 21.839844 51.535156 22.121094 C 51.820312 22.398438 51.960938 22.757812 51.960938 23.1875 C 51.960938 23.621094 51.820312 23.980469 51.535156 24.257812 C 51.253906 24.539062 50.894531 24.675781 50.457031 24.675781 L 49.558594 24.675781 L 49.558594 25.953125 L 48.839844 25.953125 L 48.839844 21.699219 Z M 50.410156 24.050781 C 50.648438 24.050781 50.847656 23.96875 51.003906 23.804688 C 51.160156 23.640625 51.238281 23.4375 51.238281 23.1875 C 51.238281 22.941406 51.160156 22.738281 51.003906 22.574219 C 50.847656 22.40625 50.648438 22.324219 50.410156 22.324219 L 49.558594 22.324219 L 49.558594 24.050781 Z M 50.410156 24.050781 " fill-opacity="1" fill-rule="nonzero"/><path fill="#ffffff" d="M 55.527344 23.1875 C 55.527344 23.515625 55.441406 23.804688 55.273438 24.050781 C 55.101562 24.296875 54.875 24.476562 54.59375 24.582031 L 55.457031 25.953125 L 54.636719 25.953125 L 53.835938 24.679688 L 53.125 24.679688 L 53.125 25.953125 L 52.40625 25.953125 L 52.40625 21.699219 L 54.023438 21.699219 C 54.460938 21.699219 54.820312 21.839844 55.101562 22.121094 C 55.386719 22.398438 55.527344 22.757812 55.527344 23.1875 Z M 53.128906 22.324219 L 53.128906 24.050781 L 53.980469 24.050781 C 54.21875 24.050781 54.414062 23.96875 54.574219 23.804688 C 54.730469 23.640625 54.808594 23.433594 54.808594 23.1875 C 54.808594 22.941406 54.730469 22.734375 54.574219 22.570312 C 54.414062 22.40625 54.21875 22.324219 53.980469 22.324219 Z M 53.128906 22.324219 " fill-opacity="1" fill-rule="nonzero"/><path fill="#ffffff" d="M 59.9375 25.417969 C 59.535156 25.851562 58.992188 26.066406 58.3125 26.066406 C 57.636719 26.066406 57.09375 25.851562 56.691406 25.417969 C 56.289062 24.988281 56.085938 24.457031 56.085938 23.828125 C 56.085938 23.195312 56.289062 22.664062 56.691406 22.234375 C 57.09375 21.804688 57.636719 21.589844 58.3125 21.589844 C 58.992188 21.589844 59.535156 21.804688 59.9375 22.234375 C 60.339844 22.664062 60.542969 23.195312 60.542969 23.828125 C 60.542969 24.457031 60.339844 24.988281 59.9375 25.417969 Z M 57.21875 24.976562 C 57.484375 25.285156 57.851562 25.4375 58.3125 25.4375 C 58.777344 25.4375 59.144531 25.285156 59.410156 24.976562 C 59.671875 24.667969 59.804688 24.285156 59.800781 23.828125 C 59.804688 23.367188 59.671875 22.984375 59.410156 22.675781 C 59.144531 22.371094 58.777344 22.214844 58.3125 22.214844 C 57.851562 22.214844 57.484375 22.371094 57.21875 22.675781 C 56.957031 22.984375 56.824219 23.367188 56.828125 23.828125 C 56.824219 24.285156 56.957031 24.667969 57.21875 24.976562 Z M 57.21875 24.976562 " fill-opacity="1" fill-rule="nonzero"/><path fill="#ffffff" d="M 61.691406 25.953125 L 61.691406 22.355469 L 60.433594 22.355469 L 60.433594 21.699219 L 63.664062 21.699219 L 63.664062 22.355469 L 62.402344 22.355469 L 62.402344 25.953125 Z M 61.691406 25.953125 " fill-opacity="1" fill-rule="nonzero"/><path fill="#ffffff" d="M 67.613281 25.417969 C 67.199219 25.851562 66.644531 26.066406 65.953125 26.066406 C 65.257812 26.066406 64.703125 25.851562 64.289062 25.417969 C 63.875 24.988281 63.664062 24.457031 63.664062 23.828125 C 63.664062 23.195312 63.875 22.664062 64.289062 22.234375 C 64.703125 21.804688 65.257812 21.589844 65.953125 21.589844 C 66.644531 21.589844 67.199219 21.804688 67.613281 22.234375 C 68.027344 22.664062 68.238281 23.195312 68.238281 23.828125 C 68.238281 24.457031 68.027344 24.988281 67.613281 25.417969 Z M 64.832031 24.976562 C 65.101562 25.285156 65.476562 25.4375 65.953125 25.4375 C 66.425781 25.4375 66.800781 25.285156 67.074219 24.976562 C 67.34375 24.667969 67.476562 24.285156 67.472656 23.828125 C 67.476562 23.367188 67.34375 22.984375 67.074219 22.675781 C 66.800781 22.371094 66.425781 22.214844 65.953125 22.214844 C 65.476562 22.214844 65.101562 22.371094 64.832031 22.675781 C 64.558594 22.984375 64.425781 23.367188 64.429688 23.828125 C 64.425781 24.285156 64.558594 24.667969 64.832031 24.976562 Z M 64.832031 24.976562 " fill-opacity="1" fill-rule="nonzero"/><path fill="#ffffff" d="M 70.933594 26.066406 C 70.242188 26.066406 69.691406 25.859375 69.289062 25.445312 C 68.886719 25.027344 68.683594 24.492188 68.683594 23.828125 C 68.683594 23.164062 68.886719 22.625 69.289062 22.210938 C 69.691406 21.796875 70.242188 21.589844 70.933594 21.589844 C 71.515625 21.589844 71.992188 21.734375 72.367188 22.023438 C 72.742188 22.3125 72.964844 22.691406 73.03125 23.15625 L 72.25 23.15625 C 72.179688 22.863281 72.035156 22.632812 71.808594 22.464844 C 71.585938 22.300781 71.296875 22.214844 70.941406 22.214844 C 70.464844 22.214844 70.097656 22.363281 69.832031 22.652344 C 69.566406 22.941406 69.433594 23.332031 69.433594 23.824219 C 69.433594 24.316406 69.566406 24.710938 69.832031 25 C 70.097656 25.289062 70.46875 25.433594 70.941406 25.433594 C 71.296875 25.433594 71.585938 25.351562 71.808594 25.183594 C 72.035156 25.019531 72.183594 24.789062 72.25 24.496094 L 73.03125 24.496094 C 72.964844 24.960938 72.742188 25.335938 72.367188 25.628906 C 71.992188 25.917969 71.515625 26.0625 70.933594 26.0625 Z M 70.933594 26.066406 " fill-opacity="1" fill-rule="nonzero"/><path fill="#ffffff" d="M 77.328125 25.417969 C 76.925781 25.851562 76.382812 26.066406 75.707031 26.066406 C 75.03125 26.066406 74.488281 25.851562 74.082031 25.417969 C 73.679688 24.988281 73.476562 24.457031 73.476562 23.828125 C 73.476562 23.195312 73.679688 22.664062 74.082031 22.234375 C 74.488281 21.804688 75.03125 21.589844 75.707031 21.589844 C 76.382812 21.589844 76.925781 21.804688 77.328125 22.234375 C 77.734375 22.664062 77.9375 23.195312 77.9375 23.828125 C 77.9375 24.457031 77.734375 24.988281 77.328125 25.417969 Z M 74.613281 24.976562 C 74.878906 25.285156 75.242188 25.4375 75.707031 25.4375 C 76.171875 25.4375 76.535156 25.285156 76.800781 24.976562 C 77.066406 24.667969 77.195312 24.285156 77.191406 23.828125 C 77.195312 23.367188 77.066406 22.984375 76.800781 22.675781 C 76.535156 22.371094 76.171875 22.214844 75.707031 22.214844 C 75.242188 22.214844 74.878906 22.371094 74.613281 22.675781 C 74.347656 22.984375 74.21875 23.367188 74.222656 23.828125 C 74.21875 24.285156 74.347656 24.667969 74.613281 24.976562 Z M 74.613281 24.976562 " fill-opacity="1" fill-rule="nonzero"/><path fill="#ffffff" d="M 78.605469 25.953125 L 78.605469 21.699219 L 79.316406 21.699219 L 79.316406 25.296875 L 81.058594 25.296875 L 81.058594 25.953125 Z M 78.605469 25.953125 " fill-opacity="1" fill-rule="nonzero"/><g clip-path="url(#32f9c60eed)"><path fill="#ffffff" d="M 61.449219 19.53125 L 61.449219 7.402344 L 68.804688 7.402344 L 68.804688 9.65625 L 64.234375 9.65625 L 64.234375 12.414062 L 68.804688 12.414062 L 68.804688 14.613281 L 64.234375 14.613281 L 64.234375 17.28125 L 68.804688 17.28125 L 68.804688 19.53125 Z M 61.449219 19.53125 " fill-opacity="1" fill-rule="nonzero"/></g><g clip-path="url(#97afd13c1e)"><path fill="#ffffff" d="M 73.105469 19.53125 L 73.105469 9.898438 L 69.804688 9.898438 L 69.804688 7.402344 L 79.1875 7.402344 L 79.1875 9.898438 L 75.871094 9.898438 L 75.871094 19.53125 Z M 73.105469 19.53125 " fill-opacity="1" fill-rule="nonzero"/></g><g clip-path="url(#cb78de235c)"><path fill="#ffffff" d="M 80.445312 19.53125 L 80.445312 7.402344 L 83.226562 7.402344 L 83.226562 12.308594 L 87.386719 12.308594 L 87.386719 7.402344 L 90.171875 7.402344 L 90.171875 19.53125 L 87.386719 19.53125 L 87.386719 14.714844 L 83.226562 14.714844 L 83.226562 19.53125 Z M 80.445312 19.53125 " fill-opacity="1" fill-rule="nonzero"/></g></svg>