<svg xmlns="http://www.w3.org/2000/svg" xmlns:xlink="http://www.w3.org/1999/xlink" width="150" zoomAndPan="magnify" viewBox="0 0 112.5 30.000001" height="40" preserveAspectRatio="xMidYMid meet" version="1.0"><defs><clipPath id="b2d1fb0ad7"><path d="M 99 11 L 107.628906 11 L 107.628906 20 L 99 20 Z M 99 11 " clip-rule="nonzero"/></clipPath><clipPath id="7ce2dcaf47"><path d="M 19 1.425781 L 30.253906 1.425781 L 30.253906 13 L 19 13 Z M 19 1.425781 " clip-rule="nonzero"/></clipPath><clipPath id="399a1730ab"><path d="M 4.125 1.425781 L 16 1.425781 L 16 13 L 4.125 13 Z M 4.125 1.425781 " clip-rule="nonzero"/></clipPath><clipPath id="7d7db7c924"><path d="M 19 16 L 30.253906 16 L 30.253906 27.261719 L 19 27.261719 Z M 19 16 " clip-rule="nonzero"/></clipPath><clipPath id="c1193ff5da"><path d="M 4.125 16 L 16 16 L 16 27.261719 L 4.125 27.261719 Z M 4.125 16 " clip-rule="nonzero"/></clipPath></defs><path fill="#f2f2f2" d="M 38.980469 16.589844 L 41.257812 16.589844 C 41.257812 17.351562 41.640625 17.847656 43.09375 17.847656 C 44.417969 17.847656 44.882812 17.464844 44.882812 16.871094 C 44.882812 16.574219 44.734375 16.339844 44.300781 16.242188 C 43.863281 16.144531 43.195312 16.078125 42.375 16.011719 C 41.191406 15.910156 40.269531 15.730469 39.769531 15.382812 C 39.300781 15.050781 38.980469 14.457031 38.980469 13.777344 C 38.980469 12.011719 40.820312 11.035156 43.113281 11.035156 C 45.820312 11.035156 47.058594 12.058594 47.058594 13.960938 L 44.816406 13.960938 C 44.800781 13.101562 44.398438 12.65625 43.144531 12.65625 C 42.007812 12.65625 41.507812 13.035156 41.507812 13.597656 C 41.507812 13.945312 41.640625 14.207031 42.109375 14.324219 C 42.527344 14.421875 43.261719 14.488281 44.148438 14.574219 C 45.167969 14.671875 45.886719 14.769531 46.503906 15.117188 C 47.042969 15.414062 47.425781 16.027344 47.425781 16.738281 C 47.425781 18.457031 45.9375 19.464844 43.113281 19.464844 C 40.203125 19.464844 38.980469 18.242188 38.980469 16.589844 Z M 38.980469 16.589844 " fill-opacity="1" fill-rule="nonzero"/><path fill="#f2f2f2" d="M 49.246094 16.523438 L 49.246094 13.117188 L 48.027344 13.117188 L 48.027344 11.167969 L 49.015625 11.167969 C 49.398438 11.167969 49.53125 10.953125 49.582031 10.457031 L 49.699219 9.316406 L 51.789062 9.316406 L 51.789062 11.167969 L 54.429688 11.167969 L 54.429688 13.117188 L 51.789062 13.117188 L 51.789062 16.390625 C 51.789062 17.234375 52.191406 17.5 53.191406 17.5 C 53.542969 17.5 54.0625 17.449219 54.347656 17.382812 L 54.347656 19.285156 C 54.128906 19.332031 53.425781 19.464844 52.742188 19.464844 C 50.167969 19.464844 49.246094 18.34375 49.246094 16.523438 Z M 49.246094 16.523438 " fill-opacity="1" fill-rule="nonzero"/><path fill="#f2f2f2" d="M 55.164062 16.984375 C 55.164062 15.648438 56.136719 14.671875 58.324219 14.671875 L 61.015625 14.671875 L 61.015625 14.125 C 61.015625 13.132812 60.449219 12.738281 59.277344 12.738281 C 58.324219 12.738281 57.773438 13.132812 57.773438 13.796875 C 57.773438 13.84375 57.773438 13.976562 57.789062 14.140625 L 55.449219 14.140625 C 55.433594 14.011719 55.417969 13.828125 55.417969 13.664062 C 55.417969 12.011719 56.886719 11.035156 59.394531 11.035156 C 62.019531 11.035156 63.558594 12.191406 63.558594 14.375 L 63.558594 19.332031 L 61.015625 19.332031 C 61.066406 18.921875 61.132812 18.175781 61.132812 17.679688 L 61.117188 17.679688 C 60.867188 18.835938 59.929688 19.464844 58.425781 19.464844 C 56.503906 19.464844 55.164062 18.640625 55.164062 16.984375 Z M 61.015625 16.191406 L 61.015625 16.027344 L 58.558594 16.027344 C 57.875 16.027344 57.457031 16.339844 57.457031 16.804688 C 57.457031 17.433594 58.007812 17.761719 58.925781 17.761719 C 60.25 17.761719 61.015625 17.183594 61.015625 16.191406 Z M 61.015625 16.191406 " fill-opacity="1" fill-rule="evenodd"/><path fill="#f2f2f2" d="M 64.746094 11.167969 L 67.285156 11.167969 L 67.1875 13.496094 L 67.21875 13.496094 C 67.570312 11.945312 68.457031 11.035156 70.078125 11.035156 C 71.765625 11.035156 72.753906 12.109375 72.753906 14.226562 C 72.753906 14.6875 72.703125 15.414062 72.671875 15.84375 L 70.363281 15.84375 C 70.394531 15.449219 70.414062 15.035156 70.414062 14.789062 C 70.414062 13.597656 69.929688 13.117188 69.125 13.117188 C 68.039062 13.117188 67.285156 13.992188 67.285156 15.8125 L 67.285156 19.332031 L 64.746094 19.332031 Z M 64.746094 11.167969 " fill-opacity="1" fill-rule="nonzero"/><path fill="#f2f2f2" d="M 82.601562 20.011719 C 82.601562 21.878906 80.914062 22.871094 78.054688 22.871094 C 75.144531 22.871094 73.421875 22.078125 73.421875 20.722656 C 73.421875 19.863281 73.992188 19.332031 74.910156 19.234375 L 74.910156 19.21875 C 74.410156 18.902344 74.140625 18.457031 74.140625 17.878906 C 74.140625 17.101562 74.542969 16.621094 75.160156 16.339844 L 75.160156 16.324219 C 74.292969 15.828125 73.808594 15.019531 73.808594 13.960938 C 73.808594 12.125 75.246094 11.035156 77.667969 11.035156 C 78.636719 11.035156 79.441406 11.199219 80.058594 11.53125 L 80.078125 11.496094 C 79.742188 11.199219 79.59375 10.871094 79.59375 10.570312 C 79.59375 9.894531 80.277344 9.496094 81.332031 9.496094 C 81.78125 9.496094 82.015625 9.53125 82.25 9.582031 L 82.25 11.167969 C 82.097656 11.132812 81.933594 11.117188 81.75 11.117188 C 81.214844 11.117188 80.960938 11.347656 80.960938 11.730469 C 80.960938 11.925781 81.03125 12.175781 81.144531 12.472656 C 81.414062 12.886719 81.546875 13.382812 81.546875 13.960938 C 81.546875 15.796875 80.109375 16.871094 77.667969 16.871094 C 77.167969 16.871094 76.714844 16.820312 76.296875 16.738281 C 76.230469 16.835938 76.148438 17.035156 76.148438 17.265625 C 76.148438 17.632812 76.449219 17.847656 76.949219 17.847656 L 79.625 17.847656 C 81.496094 17.847656 82.601562 18.65625 82.601562 20.011719 Z M 80.058594 20.359375 C 80.058594 19.914062 79.726562 19.664062 78.988281 19.664062 L 77.035156 19.664062 C 76.347656 19.664062 75.945312 19.945312 75.945312 20.410156 C 75.945312 21.019531 76.714844 21.351562 78.019531 21.351562 C 79.308594 21.351562 80.058594 21.003906 80.058594 20.359375 Z M 76.195312 13.960938 C 76.195312 14.789062 76.75 15.28125 77.667969 15.28125 C 78.605469 15.28125 79.15625 14.789062 79.15625 13.960938 C 79.15625 13.117188 78.605469 12.621094 77.667969 12.621094 C 76.75 12.621094 76.195312 13.117188 76.195312 13.960938 Z M 76.195312 13.960938 " fill-opacity="1" fill-rule="evenodd"/><path fill="#f2f2f2" d="M 83.167969 16.984375 C 83.167969 15.648438 84.140625 14.671875 86.328125 14.671875 L 89.019531 14.671875 L 89.019531 14.125 C 89.019531 13.132812 88.453125 12.738281 87.28125 12.738281 C 86.328125 12.738281 85.777344 13.132812 85.777344 13.796875 C 85.777344 13.84375 85.777344 13.976562 85.792969 14.140625 L 83.453125 14.140625 C 83.4375 14.011719 83.417969 13.828125 83.417969 13.664062 C 83.417969 12.011719 84.890625 11.035156 87.398438 11.035156 C 90.023438 11.035156 91.5625 12.191406 91.5625 14.375 L 91.5625 19.332031 L 89.019531 19.332031 C 89.070312 18.921875 89.136719 18.175781 89.136719 17.679688 L 89.121094 17.679688 C 88.871094 18.835938 87.933594 19.464844 86.429688 19.464844 C 84.507812 19.464844 83.167969 18.640625 83.167969 16.984375 Z M 89.019531 16.191406 L 89.019531 16.027344 L 86.5625 16.027344 C 85.878906 16.027344 85.460938 16.339844 85.460938 16.804688 C 85.460938 17.433594 86.011719 17.761719 86.929688 17.761719 C 88.25 17.761719 89.019531 17.183594 89.019531 16.191406 Z M 89.019531 16.191406 " fill-opacity="1" fill-rule="evenodd"/><path fill="#f2f2f2" d="M 93.449219 16.523438 L 93.449219 13.117188 L 92.230469 13.117188 L 92.230469 11.167969 L 93.21875 11.167969 C 93.601562 11.167969 93.734375 10.953125 93.785156 10.457031 L 93.902344 9.316406 L 95.992188 9.316406 L 95.992188 11.167969 L 98.632812 11.167969 L 98.632812 13.117188 L 95.992188 13.117188 L 95.992188 16.390625 C 95.992188 17.234375 96.394531 17.5 97.398438 17.5 C 97.75 17.5 98.265625 17.449219 98.550781 17.382812 L 98.550781 19.285156 C 98.332031 19.332031 97.628906 19.464844 96.945312 19.464844 C 94.371094 19.464844 93.449219 18.34375 93.449219 16.523438 Z M 93.449219 16.523438 " fill-opacity="1" fill-rule="nonzero"/><g clip-path="url(#b2d1fb0ad7)"><path fill="#f2f2f2" d="M 107.628906 15.730469 L 101.757812 15.730469 C 101.875 17.066406 102.5625 17.648438 103.699219 17.648438 C 104.683594 17.648438 105.320312 17.300781 105.386719 16.507812 L 107.628906 16.507812 C 107.578125 18.375 106.007812 19.464844 103.648438 19.464844 C 100.90625 19.464844 99.203125 17.929688 99.203125 15.332031 C 99.203125 12.636719 100.90625 11.035156 103.699219 11.035156 C 106.007812 11.035156 107.628906 12.339844 107.628906 15.019531 Z M 105.386719 14.257812 C 105.386719 13.332031 104.753906 12.855469 103.699219 12.855469 C 102.628906 12.855469 102.027344 13.316406 101.828125 14.390625 L 105.386719 14.390625 Z M 105.386719 14.257812 " fill-opacity="1" fill-rule="evenodd"/></g><g clip-path="url(#7ce2dcaf47)"><path fill="#999999" d="M 19.78125 2.453125 L 20.476562 4.0625 C 21.839844 7.226562 24.386719 9.742188 27.585938 11.09375 L 29.214844 11.78125 C 29.640625 11.960938 29.988281 12.21875 30.253906 12.527344 C 29.445312 6.773438 24.84375 2.226562 19.027344 1.425781 C 19.339844 1.6875 19.597656 2.03125 19.78125 2.453125 Z M 19.78125 2.453125 " fill-opacity="1" fill-rule="nonzero"/></g><g clip-path="url(#399a1730ab)"><path fill="#999999" d="M 5.164062 11.78125 L 6.792969 11.09375 C 9.992188 9.742188 12.539062 7.226562 13.902344 4.0625 L 14.597656 2.453125 C 14.78125 2.03125 15.042969 1.6875 15.351562 1.425781 C 9.535156 2.226562 4.9375 6.773438 4.125 12.527344 C 4.394531 12.21875 4.738281 11.960938 5.164062 11.78125 Z M 5.164062 11.78125 " fill-opacity="1" fill-rule="nonzero"/></g><g clip-path="url(#7d7db7c924)"><path fill="#999999" d="M 29.214844 16.90625 L 27.585938 17.59375 C 24.386719 18.941406 21.839844 21.460938 20.476562 24.621094 L 19.78125 26.234375 C 19.597656 26.652344 19.339844 26.996094 19.027344 27.261719 C 24.84375 26.460938 29.445312 21.910156 30.253906 16.160156 C 29.988281 16.46875 29.640625 16.726562 29.214844 16.90625 Z M 29.214844 16.90625 " fill-opacity="1" fill-rule="nonzero"/></g><g clip-path="url(#c1193ff5da)"><path fill="#999999" d="M 14.597656 26.234375 L 13.902344 24.621094 C 12.539062 21.460938 9.992188 18.941406 6.792969 17.59375 L 5.164062 16.90625 C 4.738281 16.726562 4.394531 16.46875 4.125 16.160156 C 4.9375 21.910156 9.535156 26.460938 15.351562 27.261719 C 15.042969 26.996094 14.78125 26.652344 14.597656 26.234375 Z M 14.597656 26.234375 " fill-opacity="1" fill-rule="nonzero"/></g><path fill="#f2f2f2" d="M 11.265625 13.078125 L 12.066406 12.742188 C 13.640625 12.074219 14.898438 10.835938 15.570312 9.277344 L 15.914062 8.484375 C 16.394531 7.371094 17.988281 7.371094 18.464844 8.484375 L 18.808594 9.277344 C 19.480469 10.835938 20.738281 12.074219 22.3125 12.742188 L 23.117188 13.078125 C 24.238281 13.554688 24.238281 15.128906 23.117188 15.605469 L 22.3125 15.941406 C 20.738281 16.609375 19.480469 17.847656 18.808594 19.40625 L 18.464844 20.199219 C 17.988281 21.3125 16.394531 21.3125 15.914062 20.199219 L 15.570312 19.40625 C 14.898438 17.847656 13.640625 16.609375 12.066406 15.941406 L 11.265625 15.605469 C 10.140625 15.128906 10.140625 13.554688 11.265625 13.078125 Z M 11.265625 13.078125 " fill-opacity="1" fill-rule="nonzero"/></svg>