<svg xmlns="http://www.w3.org/2000/svg" xmlns:xlink="http://www.w3.org/1999/xlink" width="150" zoomAndPan="magnify" viewBox="0 0 112.5 30.000001" height="40" preserveAspectRatio="xMidYMid meet" version="1.0"><defs><clipPath id="93efd71a92"><path d="M 17.335938 1.453125 L 34 1.453125 L 34 27.582031 L 17.335938 27.582031 Z M 17.335938 1.453125 " clip-rule="nonzero"/></clipPath><clipPath id="fced2b4b78"><path d="M 18 3 L 33 3 L 33 22 L 18 22 Z M 18 3 " clip-rule="nonzero"/></clipPath><clipPath id="af102af4f0"><path d="M 25.519531 16.753906 L 22.5625 18.914062 L 25.519531 21.082031 L 28.480469 18.914062 Z M 21.703125 10.339844 L 25.519531 7.546875 L 29.335938 10.339844 L 32.296875 8.167969 L 25.519531 3.210938 L 18.746094 8.167969 Z M 32.296875 14.664062 L 25.519531 9.707031 L 18.746094 14.664062 L 21.707031 16.832031 L 25.523438 14.039062 L 29.339844 16.832031 Z M 32.296875 14.664062 " clip-rule="nonzero"/></clipPath><linearGradient x1="31.190001" gradientTransform="matrix(0.262369, 0, 0, 0.261258, 17.337095, 1.453224)" y1="75.127896" x2="31.190001" gradientUnits="userSpaceOnUse" y2="6.724849" id="8f70a8db12"><stop stop-opacity="1" stop-color="rgb(29.267883%, 58.21991%, 80.343628%)" offset="0"/><stop stop-opacity="1" stop-color="rgb(29.174805%, 58.375549%, 80.303955%)" offset="0.0078125"/><stop stop-opacity="1" stop-color="rgb(28.990173%, 58.685303%, 80.226135%)" offset="0.015625"/><stop stop-opacity="1" stop-color="rgb(28.807068%, 58.996582%, 80.149841%)" offset="0.0234375"/><stop stop-opacity="1" stop-color="rgb(28.622437%, 59.307861%, 80.072021%)" offset="0.03125"/><stop stop-opacity="1" stop-color="rgb(28.437805%, 59.617615%, 79.994202%)" offset="0.0390625"/><stop stop-opacity="1" stop-color="rgb(28.253174%, 59.928894%, 79.916382%)" offset="0.046875"/><stop stop-opacity="1" stop-color="rgb(28.068542%, 60.240173%, 79.838562%)" offset="0.0546875"/><stop stop-opacity="1" stop-color="rgb(27.883911%, 60.549927%, 79.760742%)" offset="0.0625"/><stop stop-opacity="1" stop-color="rgb(27.69928%, 60.861206%, 79.682922%)" offset="0.0703125"/><stop stop-opacity="1" stop-color="rgb(27.514648%, 61.170959%, 79.611206%)" offset="0.078125"/><stop stop-opacity="1" stop-color="rgb(27.330017%, 61.477661%, 79.551697%)" offset="0.0859375"/><stop stop-opacity="1" stop-color="rgb(27.145386%, 61.782837%, 79.498291%)" offset="0.09375"/><stop stop-opacity="1" stop-color="rgb(26.960754%, 62.088013%, 79.446411%)" offset="0.101562"/><stop stop-opacity="1" stop-color="rgb(26.776123%, 62.391663%, 79.393005%)" offset="0.109375"/><stop stop-opacity="1" stop-color="rgb(26.591492%, 62.696838%, 79.341125%)" offset="0.117188"/><stop stop-opacity="1" stop-color="rgb(26.40686%, 63.002014%, 79.289246%)" offset="0.125"/><stop stop-opacity="1" stop-color="rgb(26.222229%, 63.30719%, 79.23584%)" offset="0.132813"/><stop stop-opacity="1" stop-color="rgb(26.039124%, 63.612366%, 79.18396%)" offset="0.140625"/><stop stop-opacity="1" stop-color="rgb(25.854492%, 63.917542%, 79.13208%)" offset="0.148438"/><stop stop-opacity="1" stop-color="rgb(25.669861%, 64.222717%, 79.078674%)" offset="0.15625"/><stop stop-opacity="1" stop-color="rgb(25.485229%, 64.526367%, 79.026794%)" offset="0.164062"/><stop stop-opacity="1" stop-color="rgb(25.300598%, 64.831543%, 78.974915%)" offset="0.171875"/><stop stop-opacity="1" stop-color="rgb(25.115967%, 65.136719%, 78.921509%)" offset="0.179688"/><stop stop-opacity="1" stop-color="rgb(24.931335%, 65.441895%, 78.869629%)" offset="0.1875"/><stop stop-opacity="1" stop-color="rgb(24.746704%, 65.74707%, 78.816223%)" offset="0.195312"/><stop stop-opacity="1" stop-color="rgb(24.562073%, 66.052246%, 78.764343%)" offset="0.203125"/><stop stop-opacity="1" stop-color="rgb(24.377441%, 66.357422%, 78.712463%)" offset="0.210938"/><stop stop-opacity="1" stop-color="rgb(24.19281%, 66.661072%, 78.659058%)" offset="0.21875"/><stop stop-opacity="1" stop-color="rgb(24.008179%, 66.966248%, 78.607178%)" offset="0.226562"/><stop stop-opacity="1" stop-color="rgb(23.823547%, 67.271423%, 78.555298%)" offset="0.234375"/><stop stop-opacity="1" stop-color="rgb(23.638916%, 67.576599%, 78.501892%)" offset="0.242188"/><stop stop-opacity="1" stop-color="rgb(23.455811%, 67.881775%, 78.450012%)" offset="0.25"/><stop stop-opacity="1" stop-color="rgb(23.271179%, 68.186951%, 78.396606%)" offset="0.257812"/><stop stop-opacity="1" stop-color="rgb(23.086548%, 68.490601%, 78.344727%)" offset="0.265625"/><stop stop-opacity="1" stop-color="rgb(22.901917%, 68.795776%, 78.292847%)" offset="0.273438"/><stop stop-opacity="1" stop-color="rgb(22.717285%, 69.100952%, 78.239441%)" offset="0.28125"/><stop stop-opacity="1" stop-color="rgb(22.532654%, 69.406128%, 78.187561%)" offset="0.289062"/><stop stop-opacity="1" stop-color="rgb(22.348022%, 69.711304%, 78.135681%)" offset="0.296875"/><stop stop-opacity="1" stop-color="rgb(22.163391%, 70.016479%, 78.082275%)" offset="0.304687"/><stop stop-opacity="1" stop-color="rgb(21.97876%, 70.321655%, 78.030396%)" offset="0.3125"/><stop stop-opacity="1" stop-color="rgb(21.794128%, 70.625305%, 77.978516%)" offset="0.320312"/><stop stop-opacity="1" stop-color="rgb(21.609497%, 70.930481%, 77.92511%)" offset="0.328125"/><stop stop-opacity="1" stop-color="rgb(21.424866%, 71.235657%, 77.87323%)" offset="0.335937"/><stop stop-opacity="1" stop-color="rgb(21.240234%, 71.540833%, 77.819824%)" offset="0.34375"/><stop stop-opacity="1" stop-color="rgb(21.055603%, 71.846008%, 77.767944%)" offset="0.351562"/><stop stop-opacity="1" stop-color="rgb(20.872498%, 72.151184%, 77.716064%)" offset="0.359375"/><stop stop-opacity="1" stop-color="rgb(20.687866%, 72.45636%, 77.662659%)" offset="0.367187"/><stop stop-opacity="1" stop-color="rgb(20.503235%, 72.76001%, 77.610779%)" offset="0.375"/><stop stop-opacity="1" stop-color="rgb(20.318604%, 73.065186%, 77.558899%)" offset="0.382812"/><stop stop-opacity="1" stop-color="rgb(20.133972%, 73.370361%, 77.505493%)" offset="0.390625"/><stop stop-opacity="1" stop-color="rgb(19.949341%, 73.675537%, 77.453613%)" offset="0.398437"/><stop stop-opacity="1" stop-color="rgb(19.764709%, 73.980713%, 77.400208%)" offset="0.40625"/><stop stop-opacity="1" stop-color="rgb(19.580078%, 74.285889%, 77.348328%)" offset="0.414062"/><stop stop-opacity="1" stop-color="rgb(19.395447%, 74.591064%, 77.296448%)" offset="0.421875"/><stop stop-opacity="1" stop-color="rgb(19.210815%, 74.894714%, 77.243042%)" offset="0.429687"/><stop stop-opacity="1" stop-color="rgb(19.026184%, 75.19989%, 77.191162%)" offset="0.4375"/><stop stop-opacity="1" stop-color="rgb(18.841553%, 75.505066%, 77.139282%)" offset="0.445312"/><stop stop-opacity="1" stop-color="rgb(18.656921%, 75.810242%, 77.085876%)" offset="0.453125"/><stop stop-opacity="1" stop-color="rgb(18.47229%, 76.115417%, 77.033997%)" offset="0.460937"/><stop stop-opacity="1" stop-color="rgb(18.287659%, 76.420593%, 76.980591%)" offset="0.46875"/><stop stop-opacity="1" stop-color="rgb(18.104553%, 76.724243%, 76.928711%)" offset="0.476562"/><stop stop-opacity="1" stop-color="rgb(17.939758%, 76.994324%, 76.882935%)" offset="0.484375"/><stop stop-opacity="1" stop-color="rgb(17.797852%, 77.224731%, 76.843262%)" offset="0.492187"/><stop stop-opacity="1" stop-color="rgb(17.657471%, 77.453613%, 76.805115%)" offset="0.5"/><stop stop-opacity="1" stop-color="rgb(17.515564%, 77.680969%, 76.765442%)" offset="0.507812"/><stop stop-opacity="1" stop-color="rgb(17.375183%, 77.909851%, 76.727295%)" offset="0.515625"/><stop stop-opacity="1" stop-color="rgb(17.234802%, 78.137207%, 76.687622%)" offset="0.523437"/><stop stop-opacity="1" stop-color="rgb(17.094421%, 78.366089%, 76.649475%)" offset="0.53125"/><stop stop-opacity="1" stop-color="rgb(16.952515%, 78.594971%, 76.609802%)" offset="0.539062"/><stop stop-opacity="1" stop-color="rgb(16.812134%, 78.822327%, 76.571655%)" offset="0.546875"/><stop stop-opacity="1" stop-color="rgb(16.671753%, 79.051208%, 76.531982%)" offset="0.554687"/><stop stop-opacity="1" stop-color="rgb(16.529846%, 79.278564%, 76.493835%)" offset="0.5625"/><stop stop-opacity="1" stop-color="rgb(16.389465%, 79.507446%, 76.454163%)" offset="0.570312"/><stop stop-opacity="1" stop-color="rgb(16.249084%, 79.734802%, 76.416016%)" offset="0.578125"/><stop stop-opacity="1" stop-color="rgb(16.107178%, 79.963684%, 76.377869%)" offset="0.585938"/><stop stop-opacity="1" stop-color="rgb(15.966797%, 80.192566%, 76.338196%)" offset="0.59375"/><stop stop-opacity="1" stop-color="rgb(15.826416%, 80.419922%, 76.300049%)" offset="0.601562"/><stop stop-opacity="1" stop-color="rgb(15.686035%, 80.648804%, 76.260376%)" offset="0.609375"/><stop stop-opacity="1" stop-color="rgb(15.544128%, 80.87616%, 76.222229%)" offset="0.617188"/><stop stop-opacity="1" stop-color="rgb(15.403748%, 81.105042%, 76.182556%)" offset="0.625"/><stop stop-opacity="1" stop-color="rgb(15.263367%, 81.332397%, 76.144409%)" offset="0.632812"/><stop stop-opacity="1" stop-color="rgb(15.12146%, 81.561279%, 76.104736%)" offset="0.640625"/><stop stop-opacity="1" stop-color="rgb(14.981079%, 81.790161%, 76.066589%)" offset="0.648437"/><stop stop-opacity="1" stop-color="rgb(14.840698%, 82.017517%, 76.026917%)" offset="0.65625"/><stop stop-opacity="1" stop-color="rgb(14.700317%, 82.246399%, 75.98877%)" offset="0.664062"/><stop stop-opacity="1" stop-color="rgb(14.558411%, 82.473755%, 75.949097%)" offset="0.671875"/><stop stop-opacity="1" stop-color="rgb(14.41803%, 82.702637%, 75.91095%)" offset="0.679687"/><stop stop-opacity="1" stop-color="rgb(14.277649%, 82.929993%, 75.872803%)" offset="0.6875"/><stop stop-opacity="1" stop-color="rgb(14.135742%, 83.158875%, 75.83313%)" offset="0.695313"/><stop stop-opacity="1" stop-color="rgb(13.995361%, 83.387756%, 75.794983%)" offset="0.703125"/><stop stop-opacity="1" stop-color="rgb(13.85498%, 83.615112%, 75.75531%)" offset="0.710938"/><stop stop-opacity="1" stop-color="rgb(13.7146%, 83.843994%, 75.717163%)" offset="0.71875"/><stop stop-opacity="1" stop-color="rgb(13.572693%, 84.07135%, 75.67749%)" offset="0.726562"/><stop stop-opacity="1" stop-color="rgb(13.432312%, 84.300232%, 75.639343%)" offset="0.734375"/><stop stop-opacity="1" stop-color="rgb(13.291931%, 84.527588%, 75.59967%)" offset="0.742188"/><stop stop-opacity="1" stop-color="rgb(13.150024%, 84.75647%, 75.561523%)" offset="0.75"/><stop stop-opacity="1" stop-color="rgb(13.009644%, 84.985352%, 75.521851%)" offset="0.757812"/><stop stop-opacity="1" stop-color="rgb(12.869263%, 85.212708%, 75.483704%)" offset="0.765625"/><stop stop-opacity="1" stop-color="rgb(12.728882%, 85.441589%, 75.445557%)" offset="0.773437"/><stop stop-opacity="1" stop-color="rgb(12.586975%, 85.668945%, 75.405884%)" offset="0.78125"/><stop stop-opacity="1" stop-color="rgb(12.446594%, 85.897827%, 75.367737%)" offset="0.789062"/><stop stop-opacity="1" stop-color="rgb(12.306213%, 86.125183%, 75.328064%)" offset="0.796875"/><stop stop-opacity="1" stop-color="rgb(12.149048%, 86.387634%, 75.27771%)" offset="0.8125"/><stop stop-opacity="1" stop-color="rgb(11.985779%, 86.671448%, 75.213623%)" offset="0.828125"/><stop stop-opacity="1" stop-color="rgb(11.830139%, 86.94458%, 75.151062%)" offset="0.84375"/><stop stop-opacity="1" stop-color="rgb(11.676025%, 87.216187%, 75.088501%)" offset="0.859375"/><stop stop-opacity="1" stop-color="rgb(11.520386%, 87.487793%, 75.027466%)" offset="0.875"/><stop stop-opacity="1" stop-color="rgb(11.364746%, 87.759399%, 74.964905%)" offset="0.890625"/><stop stop-opacity="1" stop-color="rgb(11.209106%, 88.031006%, 74.902344%)" offset="0.90625"/><stop stop-opacity="1" stop-color="rgb(11.053467%, 88.304138%, 74.839783%)" offset="0.921875"/><stop stop-opacity="1" stop-color="rgb(10.897827%, 88.575745%, 74.778748%)" offset="0.9375"/><stop stop-opacity="1" stop-color="rgb(10.743713%, 88.847351%, 74.716187%)" offset="0.953125"/><stop stop-opacity="1" stop-color="rgb(10.588074%, 89.118958%, 74.653625%)" offset="0.96875"/><stop stop-opacity="1" stop-color="rgb(10.432434%, 89.390564%, 74.59259%)" offset="0.984375"/><stop stop-opacity="1" stop-color="rgb(10.276794%, 89.663696%, 74.530029%)" offset="1"/></linearGradient></defs><path fill="#2c2c2c" d="M 41.300781 17.128906 C 41.273438 17.132812 41.246094 17.125 41.21875 17.117188 C 41.195312 17.105469 41.171875 17.089844 41.152344 17.070312 C 41.128906 17.050781 41.113281 17.027344 41.105469 17 C 41.09375 16.972656 41.085938 16.945312 41.085938 16.917969 L 41.085938 12.035156 L 39.4375 12.035156 C 39.40625 12.035156 39.378906 12.03125 39.351562 12.019531 C 39.328125 12.011719 39.304688 11.996094 39.28125 11.976562 C 39.261719 11.957031 39.246094 11.933594 39.238281 11.90625 C 39.226562 11.878906 39.21875 11.851562 39.222656 11.824219 L 39.222656 11.171875 C 39.21875 11.140625 39.226562 11.113281 39.234375 11.085938 C 39.246094 11.058594 39.261719 11.035156 39.28125 11.015625 C 39.300781 10.996094 39.328125 10.980469 39.351562 10.96875 C 39.378906 10.957031 39.40625 10.953125 39.4375 10.953125 L 43.996094 10.953125 C 44.023438 10.953125 44.054688 10.957031 44.082031 10.96875 C 44.109375 10.976562 44.136719 10.992188 44.15625 11.015625 C 44.175781 11.035156 44.195312 11.0625 44.203125 11.089844 C 44.214844 11.113281 44.21875 11.144531 44.21875 11.171875 L 44.21875 11.824219 C 44.21875 11.851562 44.214844 11.882812 44.203125 11.90625 C 44.195312 11.933594 44.175781 11.957031 44.15625 11.976562 C 44.136719 11.996094 44.109375 12.011719 44.082031 12.023438 C 44.054688 12.03125 44.027344 12.035156 44 12.035156 L 42.347656 12.035156 L 42.347656 16.917969 C 42.347656 16.945312 42.34375 16.972656 42.332031 17 C 42.320312 17.023438 42.304688 17.046875 42.285156 17.066406 C 42.265625 17.085938 42.238281 17.105469 42.210938 17.113281 C 42.183594 17.125 42.15625 17.128906 42.125 17.128906 Z M 41.300781 17.128906 " fill-opacity="1" fill-rule="nonzero"/><path fill="#2c2c2c" d="M 45.449219 17.128906 C 45.417969 17.128906 45.390625 17.125 45.363281 17.113281 C 45.339844 17.105469 45.316406 17.089844 45.296875 17.070312 C 45.273438 17.050781 45.257812 17.027344 45.25 17 C 45.238281 16.972656 45.230469 16.949219 45.230469 16.917969 L 45.230469 11.171875 C 45.230469 11.140625 45.238281 11.113281 45.246094 11.085938 C 45.257812 11.058594 45.273438 11.035156 45.296875 11.015625 C 45.316406 10.996094 45.339844 10.980469 45.363281 10.96875 C 45.390625 10.957031 45.417969 10.953125 45.449219 10.953125 L 47.761719 10.953125 C 48.480469 10.953125 49.050781 11.117188 49.46875 11.449219 C 49.882812 11.777344 50.09375 12.257812 50.09375 12.886719 C 50.109375 13.273438 49.992188 13.65625 49.769531 13.972656 C 49.546875 14.261719 49.246094 14.480469 48.898438 14.601562 L 50.199219 16.855469 C 50.214844 16.882812 50.222656 16.917969 50.222656 16.949219 C 50.226562 16.976562 50.21875 17 50.210938 17.023438 C 50.199219 17.046875 50.183594 17.066406 50.164062 17.085938 C 50.132812 17.117188 50.085938 17.136719 50.035156 17.136719 L 49.222656 17.136719 C 49.179688 17.140625 49.136719 17.132812 49.097656 17.121094 C 49.058594 17.109375 49.023438 17.085938 48.992188 17.058594 C 48.941406 17.011719 48.898438 16.960938 48.863281 16.902344 L 47.710938 14.804688 L 46.46875 14.804688 L 46.46875 16.925781 C 46.472656 16.953125 46.46875 16.984375 46.457031 17.011719 C 46.449219 17.039062 46.433594 17.0625 46.410156 17.082031 C 46.390625 17.105469 46.367188 17.121094 46.339844 17.128906 C 46.3125 17.140625 46.285156 17.144531 46.253906 17.144531 Z M 46.476562 13.800781 L 47.734375 13.800781 C 48.027344 13.824219 48.316406 13.738281 48.546875 13.558594 C 48.640625 13.472656 48.710938 13.363281 48.757812 13.246094 C 48.804688 13.128906 48.824219 13.003906 48.816406 12.875 C 48.824219 12.75 48.804688 12.621094 48.757812 12.5 C 48.714844 12.382812 48.644531 12.273438 48.554688 12.179688 C 48.378906 12.015625 48.105469 11.933594 47.734375 11.933594 L 46.476562 11.933594 Z M 46.476562 13.800781 " fill-opacity="1" fill-rule="nonzero"/><path fill="#2c2c2c" d="M 51.910156 17.128906 C 51.878906 17.128906 51.851562 17.125 51.824219 17.113281 C 51.800781 17.105469 51.777344 17.089844 51.757812 17.070312 C 51.734375 17.050781 51.71875 17.027344 51.710938 17 C 51.699219 16.972656 51.695312 16.945312 51.695312 16.917969 L 51.695312 11.171875 C 51.691406 11.140625 51.699219 11.113281 51.707031 11.085938 C 51.71875 11.058594 51.734375 11.035156 51.757812 11.015625 C 51.777344 10.996094 51.800781 10.980469 51.824219 10.96875 C 51.851562 10.957031 51.878906 10.953125 51.910156 10.953125 L 55.839844 10.953125 C 55.871094 10.953125 55.898438 10.957031 55.925781 10.96875 C 55.953125 10.976562 55.980469 10.996094 56 11.015625 C 56.023438 11.035156 56.039062 11.0625 56.050781 11.089844 C 56.058594 11.113281 56.066406 11.144531 56.0625 11.171875 L 56.0625 11.757812 C 56.066406 11.785156 56.058594 11.8125 56.046875 11.835938 C 56.039062 11.863281 56.023438 11.886719 56 11.90625 C 55.980469 11.925781 55.957031 11.941406 55.929688 11.953125 C 55.902344 11.964844 55.871094 11.96875 55.84375 11.96875 L 52.902344 11.96875 L 52.902344 13.539062 L 55.644531 13.539062 C 55.703125 13.539062 55.757812 13.558594 55.804688 13.597656 C 55.824219 13.617188 55.839844 13.640625 55.851562 13.667969 C 55.863281 13.695312 55.867188 13.722656 55.863281 13.753906 L 55.863281 14.300781 C 55.867188 14.328125 55.863281 14.359375 55.851562 14.386719 C 55.839844 14.410156 55.824219 14.4375 55.804688 14.457031 C 55.757812 14.496094 55.703125 14.515625 55.644531 14.515625 L 52.902344 14.515625 L 52.902344 16.128906 L 55.921875 16.128906 C 55.953125 16.128906 55.980469 16.132812 56.007812 16.144531 C 56.035156 16.152344 56.0625 16.167969 56.082031 16.191406 C 56.105469 16.210938 56.121094 16.234375 56.128906 16.261719 C 56.140625 16.289062 56.148438 16.320312 56.144531 16.347656 L 56.144531 16.933594 C 56.144531 16.960938 56.140625 16.988281 56.128906 17.015625 C 56.117188 17.039062 56.101562 17.0625 56.082031 17.082031 C 56.0625 17.101562 56.039062 17.117188 56.011719 17.128906 C 55.984375 17.140625 55.953125 17.144531 55.925781 17.144531 Z M 51.910156 17.128906 " fill-opacity="1" fill-rule="nonzero"/><path fill="#2c2c2c" d="M 57.9375 17.128906 C 57.910156 17.132812 57.878906 17.125 57.855469 17.117188 C 57.828125 17.105469 57.804688 17.089844 57.785156 17.070312 C 57.761719 17.050781 57.746094 17.027344 57.738281 17 C 57.726562 16.972656 57.722656 16.945312 57.722656 16.917969 L 57.722656 11.171875 C 57.722656 11.140625 57.726562 11.113281 57.734375 11.085938 C 57.746094 11.058594 57.761719 11.035156 57.785156 11.015625 C 57.804688 10.996094 57.828125 10.980469 57.855469 10.96875 C 57.878906 10.957031 57.910156 10.953125 57.9375 10.953125 L 61.867188 10.953125 C 61.898438 10.953125 61.925781 10.957031 61.953125 10.96875 C 61.984375 10.976562 62.007812 10.996094 62.03125 11.015625 C 62.050781 11.035156 62.066406 11.0625 62.078125 11.089844 C 62.089844 11.113281 62.09375 11.144531 62.089844 11.171875 L 62.089844 11.757812 C 62.09375 11.785156 62.085938 11.8125 62.074219 11.835938 C 62.066406 11.863281 62.050781 11.886719 62.03125 11.90625 C 62.007812 11.925781 61.984375 11.941406 61.957031 11.953125 C 61.929688 11.964844 61.898438 11.96875 61.871094 11.96875 L 58.929688 11.96875 L 58.929688 13.539062 L 61.675781 13.539062 C 61.734375 13.539062 61.789062 13.558594 61.835938 13.597656 C 61.855469 13.617188 61.871094 13.640625 61.882812 13.667969 C 61.894531 13.695312 61.898438 13.722656 61.894531 13.753906 L 61.894531 14.300781 C 61.898438 14.328125 61.894531 14.359375 61.882812 14.386719 C 61.871094 14.410156 61.855469 14.4375 61.835938 14.457031 C 61.789062 14.496094 61.734375 14.515625 61.675781 14.515625 L 58.929688 14.515625 L 58.929688 16.128906 L 61.941406 16.128906 C 61.972656 16.128906 62 16.132812 62.03125 16.144531 C 62.058594 16.152344 62.082031 16.171875 62.101562 16.191406 C 62.125 16.210938 62.140625 16.234375 62.152344 16.261719 C 62.160156 16.289062 62.167969 16.320312 62.167969 16.347656 L 62.167969 16.933594 C 62.167969 16.960938 62.160156 16.988281 62.152344 17.015625 C 62.140625 17.039062 62.125 17.0625 62.101562 17.082031 C 62.082031 17.101562 62.058594 17.117188 62.03125 17.128906 C 62.003906 17.140625 61.972656 17.144531 61.945312 17.144531 Z M 57.9375 17.128906 " fill-opacity="1" fill-rule="nonzero"/><path fill="#2c2c2c" d="M 63.964844 17.128906 C 63.910156 17.132812 63.855469 17.113281 63.8125 17.074219 C 63.792969 17.054688 63.777344 17.027344 63.765625 17 C 63.753906 16.976562 63.75 16.945312 63.75 16.917969 L 63.75 11.171875 C 63.75 11.140625 63.753906 11.113281 63.765625 11.085938 C 63.777344 11.058594 63.792969 11.035156 63.8125 11.015625 C 63.832031 10.996094 63.855469 10.980469 63.882812 10.96875 C 63.910156 10.957031 63.9375 10.953125 63.964844 10.953125 L 64.777344 10.953125 C 64.808594 10.953125 64.835938 10.957031 64.863281 10.96875 C 64.890625 10.976562 64.917969 10.996094 64.9375 11.015625 C 64.957031 11.035156 64.972656 11.0625 64.980469 11.089844 C 64.992188 11.117188 64.996094 11.144531 64.992188 11.171875 L 64.992188 13.453125 L 67.628906 13.453125 L 67.628906 11.171875 C 67.628906 11.144531 67.636719 11.113281 67.644531 11.085938 C 67.65625 11.0625 67.671875 11.039062 67.695312 11.015625 C 67.714844 10.996094 67.738281 10.980469 67.761719 10.96875 C 67.789062 10.960938 67.816406 10.953125 67.84375 10.953125 L 68.644531 10.953125 C 68.671875 10.953125 68.703125 10.957031 68.730469 10.96875 C 68.773438 10.984375 68.808594 11.011719 68.832031 11.050781 C 68.855469 11.085938 68.867188 11.128906 68.867188 11.175781 L 68.867188 16.921875 C 68.867188 16.949219 68.863281 16.976562 68.851562 17 C 68.839844 17.027344 68.824219 17.050781 68.804688 17.070312 C 68.78125 17.089844 68.757812 17.105469 68.730469 17.117188 C 68.703125 17.128906 68.675781 17.132812 68.644531 17.132812 L 67.847656 17.132812 C 67.820312 17.132812 67.792969 17.125 67.765625 17.117188 C 67.738281 17.105469 67.714844 17.089844 67.695312 17.070312 C 67.675781 17.050781 67.660156 17.027344 67.648438 17 C 67.636719 16.976562 67.632812 16.949219 67.632812 16.921875 L 67.632812 14.554688 L 64.984375 14.554688 L 64.984375 16.917969 C 64.988281 16.949219 64.984375 16.976562 64.972656 17.003906 C 64.964844 17.03125 64.949219 17.054688 64.929688 17.078125 C 64.910156 17.097656 64.882812 17.113281 64.855469 17.125 C 64.828125 17.136719 64.800781 17.140625 64.769531 17.136719 Z M 63.964844 17.128906 " fill-opacity="1" fill-rule="nonzero"/><path fill="#2c2c2c" d="M 73.15625 17.21875 C 72.6875 17.230469 72.21875 17.144531 71.789062 16.960938 C 71.414062 16.789062 71.101562 16.507812 70.894531 16.152344 C 70.667969 15.738281 70.546875 15.269531 70.546875 14.796875 C 70.546875 14.546875 70.546875 14.292969 70.546875 14.046875 C 70.546875 13.800781 70.546875 13.546875 70.546875 13.289062 C 70.542969 12.816406 70.667969 12.355469 70.902344 11.945312 C 71.117188 11.59375 71.433594 11.308594 71.8125 11.132812 C 72.234375 10.953125 72.695312 10.859375 73.15625 10.859375 C 73.621094 10.859375 74.078125 10.953125 74.503906 11.132812 C 74.882812 11.308594 75.199219 11.59375 75.414062 11.945312 C 75.652344 12.355469 75.773438 12.816406 75.773438 13.289062 C 75.785156 13.550781 75.789062 13.800781 75.792969 14.046875 C 75.792969 14.292969 75.792969 14.546875 75.773438 14.796875 C 75.773438 15.269531 75.652344 15.738281 75.425781 16.152344 C 75.21875 16.507812 74.90625 16.789062 74.527344 16.957031 C 74.09375 17.140625 73.628906 17.230469 73.15625 17.21875 Z M 73.15625 16.203125 C 73.507812 16.21875 73.851562 16.097656 74.113281 15.863281 C 74.359375 15.636719 74.488281 15.265625 74.507812 14.753906 C 74.519531 14.496094 74.523438 14.253906 74.523438 14.035156 C 74.523438 13.816406 74.523438 13.578125 74.507812 13.324219 C 74.507812 13.035156 74.441406 12.75 74.316406 12.488281 C 74.210938 12.285156 74.042969 12.121094 73.839844 12.019531 C 73.625 11.921875 73.394531 11.875 73.164062 11.875 C 72.929688 11.875 72.703125 11.921875 72.488281 12.019531 C 72.285156 12.121094 72.121094 12.289062 72.019531 12.488281 C 71.894531 12.75 71.828125 13.035156 71.828125 13.324219 C 71.828125 13.578125 71.820312 13.816406 71.820312 14.035156 C 71.820312 14.257812 71.820312 14.496094 71.828125 14.753906 C 71.84375 15.265625 71.976562 15.636719 72.222656 15.863281 C 72.476562 16.09375 72.8125 16.214844 73.15625 16.203125 Z M 73.15625 16.203125 " fill-opacity="1" fill-rule="nonzero"/><path fill="#2c2c2c" d="M 79.828125 17.21875 C 79.367188 17.230469 78.90625 17.140625 78.480469 16.957031 C 78.105469 16.789062 77.796875 16.507812 77.59375 16.152344 C 77.367188 15.722656 77.257812 15.246094 77.277344 14.761719 L 77.277344 11.167969 C 77.277344 11.140625 77.28125 11.109375 77.292969 11.082031 C 77.304688 11.054688 77.320312 11.03125 77.339844 11.011719 C 77.359375 10.988281 77.386719 10.972656 77.414062 10.960938 C 77.441406 10.949219 77.46875 10.945312 77.5 10.949219 L 78.3125 10.949219 C 78.34375 10.949219 78.371094 10.953125 78.398438 10.964844 C 78.425781 10.972656 78.453125 10.988281 78.472656 11.011719 C 78.511719 11.054688 78.53125 11.109375 78.53125 11.167969 L 78.53125 14.761719 C 78.53125 15.246094 78.644531 15.601562 78.878906 15.835938 C 79.003906 15.953125 79.15625 16.046875 79.320312 16.105469 C 79.484375 16.167969 79.65625 16.195312 79.832031 16.183594 C 80.007812 16.195312 80.183594 16.167969 80.347656 16.109375 C 80.511719 16.050781 80.660156 15.957031 80.785156 15.835938 C 81.015625 15.601562 81.128906 15.246094 81.132812 14.761719 L 81.132812 11.167969 C 81.128906 11.136719 81.136719 11.109375 81.144531 11.082031 C 81.15625 11.054688 81.171875 11.027344 81.195312 11.007812 C 81.214844 10.988281 81.238281 10.972656 81.265625 10.960938 C 81.292969 10.949219 81.324219 10.945312 81.355469 10.945312 L 82.160156 10.945312 C 82.1875 10.945312 82.21875 10.949219 82.246094 10.960938 C 82.273438 10.972656 82.296875 10.988281 82.316406 11.007812 C 82.335938 11.03125 82.351562 11.054688 82.359375 11.082031 C 82.371094 11.109375 82.375 11.136719 82.375 11.167969 L 82.375 14.761719 C 82.394531 15.242188 82.289062 15.722656 82.066406 16.152344 C 81.871094 16.507812 81.5625 16.789062 81.191406 16.960938 C 80.765625 17.144531 80.304688 17.230469 79.839844 17.21875 Z M 79.828125 17.21875 " fill-opacity="1" fill-rule="nonzero"/><path fill="#2c2c2c" d="M 86.292969 17.21875 C 85.816406 17.234375 85.34375 17.152344 84.902344 16.976562 C 84.570312 16.84375 84.277344 16.628906 84.054688 16.347656 C 83.871094 16.109375 83.761719 15.820312 83.746094 15.519531 C 83.746094 15.496094 83.75 15.472656 83.757812 15.449219 C 83.769531 15.425781 83.78125 15.40625 83.796875 15.390625 C 83.816406 15.371094 83.835938 15.359375 83.859375 15.347656 C 83.882812 15.339844 83.910156 15.335938 83.933594 15.335938 L 84.730469 15.335938 C 84.792969 15.332031 84.851562 15.347656 84.902344 15.382812 C 84.945312 15.417969 84.976562 15.460938 85.003906 15.503906 C 85.050781 15.628906 85.121094 15.742188 85.210938 15.835938 C 85.328125 15.953125 85.46875 16.046875 85.628906 16.105469 C 85.839844 16.179688 86.066406 16.21875 86.292969 16.210938 C 86.722656 16.210938 87.042969 16.140625 87.246094 16 C 87.347656 15.9375 87.429688 15.855469 87.484375 15.753906 C 87.539062 15.652344 87.566406 15.539062 87.566406 15.425781 C 87.570312 15.347656 87.554688 15.273438 87.527344 15.199219 C 87.496094 15.128906 87.453125 15.066406 87.394531 15.011719 C 87.242188 14.886719 87.0625 14.792969 86.871094 14.730469 C 86.566406 14.625 86.253906 14.535156 85.9375 14.460938 C 85.550781 14.378906 85.175781 14.246094 84.816406 14.078125 C 84.542969 13.949219 84.308594 13.753906 84.136719 13.507812 C 83.976562 13.246094 83.898438 12.941406 83.910156 12.632812 C 83.90625 12.308594 84.003906 11.992188 84.191406 11.726562 C 84.394531 11.445312 84.675781 11.230469 84.996094 11.097656 C 85.390625 10.933594 85.816406 10.855469 86.242188 10.867188 C 86.59375 10.863281 86.941406 10.914062 87.269531 11.023438 C 87.542969 11.113281 87.792969 11.25 88.011719 11.429688 C 88.195312 11.582031 88.347656 11.765625 88.464844 11.96875 C 88.558594 12.140625 88.613281 12.332031 88.625 12.53125 C 88.625 12.578125 88.605469 12.621094 88.574219 12.65625 C 88.554688 12.679688 88.535156 12.695312 88.511719 12.703125 C 88.488281 12.714844 88.460938 12.71875 88.433594 12.714844 L 87.605469 12.714844 C 87.554688 12.714844 87.503906 12.703125 87.460938 12.679688 C 87.40625 12.652344 87.367188 12.605469 87.34375 12.546875 C 87.320312 12.449219 87.277344 12.359375 87.21875 12.277344 C 87.160156 12.195312 87.082031 12.128906 86.996094 12.078125 C 86.769531 11.941406 86.503906 11.875 86.234375 11.882812 C 85.964844 11.871094 85.695312 11.933594 85.457031 12.0625 C 85.382812 12.113281 85.316406 12.179688 85.269531 12.253906 C 85.21875 12.332031 85.183594 12.417969 85.171875 12.507812 C 85.15625 12.597656 85.164062 12.691406 85.1875 12.777344 C 85.210938 12.867188 85.253906 12.949219 85.3125 13.019531 C 85.445312 13.152344 85.609375 13.25 85.789062 13.308594 C 86.070312 13.410156 86.359375 13.5 86.648438 13.570312 C 87.074219 13.660156 87.492188 13.789062 87.890625 13.960938 C 88.175781 14.078125 88.421875 14.273438 88.597656 14.523438 C 88.753906 14.78125 88.832031 15.078125 88.820312 15.382812 C 88.832031 15.738281 88.71875 16.089844 88.503906 16.375 C 88.269531 16.660156 87.960938 16.878906 87.613281 17.003906 C 87.1875 17.15625 86.734375 17.230469 86.28125 17.21875 Z M 86.292969 17.21875 " fill-opacity="1" fill-rule="nonzero"/><path fill="#2c2c2c" d="M 90.652344 17.128906 C 90.625 17.132812 90.597656 17.125 90.570312 17.117188 C 90.542969 17.105469 90.519531 17.089844 90.5 17.070312 C 90.480469 17.050781 90.464844 17.027344 90.453125 17 C 90.445312 16.972656 90.4375 16.945312 90.4375 16.917969 L 90.4375 11.171875 C 90.4375 11.140625 90.441406 11.113281 90.453125 11.085938 C 90.464844 11.058594 90.480469 11.035156 90.5 11.015625 C 90.519531 10.996094 90.542969 10.980469 90.570312 10.96875 C 90.59375 10.957031 90.625 10.953125 90.652344 10.953125 L 94.585938 10.953125 C 94.613281 10.953125 94.644531 10.957031 94.671875 10.96875 C 94.726562 10.988281 94.769531 11.035156 94.792969 11.085938 C 94.804688 11.113281 94.808594 11.144531 94.808594 11.171875 L 94.808594 11.757812 C 94.808594 11.785156 94.804688 11.8125 94.792969 11.835938 C 94.78125 11.863281 94.765625 11.886719 94.746094 11.90625 C 94.726562 11.925781 94.699219 11.941406 94.671875 11.953125 C 94.644531 11.964844 94.617188 11.96875 94.585938 11.96875 L 91.644531 11.96875 L 91.644531 13.539062 L 94.390625 13.539062 C 94.449219 13.539062 94.503906 13.558594 94.546875 13.597656 C 94.570312 13.617188 94.585938 13.640625 94.597656 13.667969 C 94.609375 13.695312 94.613281 13.722656 94.613281 13.753906 L 94.613281 14.300781 C 94.613281 14.328125 94.609375 14.359375 94.597656 14.386719 C 94.585938 14.414062 94.570312 14.4375 94.546875 14.457031 C 94.527344 14.476562 94.5 14.492188 94.472656 14.5 C 94.445312 14.511719 94.417969 14.515625 94.390625 14.515625 L 91.644531 14.515625 L 91.644531 16.128906 L 94.65625 16.128906 C 94.6875 16.128906 94.714844 16.132812 94.742188 16.144531 C 94.769531 16.15625 94.796875 16.171875 94.816406 16.191406 C 94.839844 16.210938 94.855469 16.238281 94.867188 16.265625 C 94.875 16.289062 94.882812 16.320312 94.878906 16.347656 L 94.878906 16.933594 C 94.878906 16.960938 94.875 16.988281 94.863281 17.015625 C 94.851562 17.039062 94.835938 17.0625 94.816406 17.082031 C 94.796875 17.101562 94.773438 17.117188 94.746094 17.128906 C 94.71875 17.140625 94.6875 17.144531 94.660156 17.144531 Z M 90.652344 17.128906 " fill-opacity="1" fill-rule="nonzero"/><g clip-path="url(#93efd71a92)"><path fill="#2c2c2c" d="M 25.519531 1.453125 L 17.351562 7.433594 L 17.351562 20.140625 L 21.707031 23.328125 L 22.5625 22.703125 L 22.5625 25.410156 L 25.519531 27.578125 L 28.480469 25.410156 L 28.480469 22.703125 L 29.335938 23.328125 L 33.691406 20.140625 L 33.691406 7.433594 Z M 25.519531 1.453125 " fill-opacity="1" fill-rule="nonzero"/></g><g clip-path="url(#fced2b4b78)"><g clip-path="url(#af102af4f0)"><path fill="url(#8f70a8db12)" d="M 18.746094 3.210938 L 18.746094 21.082031 L 32.296875 21.082031 L 32.296875 3.210938 Z M 18.746094 3.210938 " fill-rule="nonzero"/></g></g></svg>